solid 3
  facet normal -1.000000e+00 0.000000e+00 0.000000e+00
    outer loop
      vertex -7.000000e-01 1.082483e-01 -9.375028e-01
      vertex -7.000000e-01 -3.750000e-01 0.000000e+00
      vertex -7.000000e-01 3.750000e-01 0.000000e+00
    endloop
  endfacet
  facet normal 0.000000e+00 0.000000e+00 1.000000e+00
    outer loop
      vertex -6.370000e-01 1.250000e-01 0.000000e+00
      vertex -7.000000e-01 3.750000e-01 0.000000e+00
      vertex -7.000000e-01 -3.750000e-01 0.000000e+00
    endloop
  endfacet
  facet normal -1.000000e+00 0.000000e+00 0.000000e+00
    outer loop
      vertex -7.000000e-01 1.082483e-01 -9.375028e-01
      vertex -7.000000e-01 3.750000e-01 0.000000e+00
      vertex -7.000000e-01 3.750000e-01 -1.500000e+00
    endloop
  endfacet
  facet normal 0.000000e+00 1.000000e+00 0.000000e+00
    outer loop
      vertex -2.500000e-01 3.750000e-01 -1.500000e+00
      vertex -7.000000e-01 3.750000e-01 -1.500000e+00
      vertex -7.000000e-01 3.750000e-01 0.000000e+00
    endloop
  endfacet
  facet normal 0.000000e+00 0.000000e+00 1.000000e+00
    outer loop
      vertex 5.120000e-01 2.499944e-01 0.000000e+00
      vertex 7.000000e-01 3.750000e-01 0.000000e+00
      vertex -7.000000e-01 3.750000e-01 0.000000e+00
    endloop
  endfacet
  facet normal 0.000000e+00 1.000000e+00 0.000000e+00
    outer loop
      vertex 2.500000e-01 3.750000e-01 -2.500000e-01
      vertex -7.000000e-01 3.750000e-01 0.000000e+00
      vertex 7.000000e-01 3.750000e-01 0.000000e+00
    endloop
  endfacet
  facet normal 0.000000e+00 0.000000e+00 1.000000e+00
    outer loop
      vertex -5.120000e-01 2.499944e-01 0.000000e+00
      vertex -4.495000e-01 2.332532e-01 0.000000e+00
      vertex -7.000000e-01 3.750000e-01 0.000000e+00
    endloop
  endfacet
  facet normal 0.000000e+00 0.000000e+00 1.000000e+00
    outer loop
      vertex 3.870000e-01 1.250000e-01 0.000000e+00
      vertex -7.000000e-01 3.750000e-01 0.000000e+00
      vertex -4.495000e-01 2.332532e-01 0.000000e+00
    endloop
  endfacet
  facet normal 0.000000e+00 0.000000e+00 1.000000e+00
    outer loop
      vertex -5.745000e-01 2.332532e-01 0.000000e+00
      vertex -5.120000e-01 2.499944e-01 0.000000e+00
      vertex -7.000000e-01 3.750000e-01 0.000000e+00
    endloop
  endfacet
  facet normal 0.000000e+00 0.000000e+00 1.000000e+00
    outer loop
      vertex -6.202483e-01 1.874972e-01 0.000000e+00
      vertex -5.745000e-01 2.332532e-01 0.000000e+00
      vertex -7.000000e-01 3.750000e-01 0.000000e+00
    endloop
  endfacet
  facet normal 0.000000e+00 0.000000e+00 1.000000e+00
    outer loop
      vertex -6.370000e-01 1.250000e-01 0.000000e+00
      vertex -6.202483e-01 1.874972e-01 0.000000e+00
      vertex -7.000000e-01 3.750000e-01 0.000000e+00
    endloop
  endfacet
  facet normal 0.000000e+00 0.000000e+00 1.000000e+00
    outer loop
      vertex 4.495000e-01 2.332532e-01 0.000000e+00
      vertex 5.120000e-01 2.499944e-01 0.000000e+00
      vertex -7.000000e-01 3.750000e-01 0.000000e+00
    endloop
  endfacet
  facet normal 0.000000e+00 0.000000e+00 1.000000e+00
    outer loop
      vertex 4.037517e-01 1.874972e-01 0.000000e+00
      vertex 4.495000e-01 2.332532e-01 0.000000e+00
      vertex -7.000000e-01 3.750000e-01 0.000000e+00
    endloop
  endfacet
  facet normal 0.000000e+00 0.000000e+00 1.000000e+00
    outer loop
      vertex 3.870000e-01 1.250000e-01 0.000000e+00
      vertex 4.037517e-01 1.874972e-01 0.000000e+00
      vertex -7.000000e-01 3.750000e-01 0.000000e+00
    endloop
  endfacet
  facet normal 0.000000e+00 1.000000e+00 0.000000e+00
    outer loop
      vertex -2.500000e-01 3.750000e-01 -2.500000e-01
      vertex -2.500000e-01 3.750000e-01 -1.500000e+00
      vertex -7.000000e-01 3.750000e-01 0.000000e+00
    endloop
  endfacet
  facet normal 0.000000e+00 1.000000e+00 0.000000e+00
    outer loop
      vertex 2.500000e-01 3.750000e-01 -2.500000e-01
      vertex -2.500000e-01 3.750000e-01 -2.500000e-01
      vertex -7.000000e-01 3.750000e-01 0.000000e+00
    endloop
  endfacet
  facet normal -1.000000e+00 0.000000e+00 0.000000e+00
    outer loop
      vertex -7.000000e-01 -1.250000e-01 -1.000000e+00
      vertex -7.000000e-01 -3.750000e-01 -1.500000e+00
      vertex -7.000000e-01 -3.750000e-01 0.000000e+00
    endloop
  endfacet
  facet normal 0.000000e+00 -1.000000e+00 0.000000e+00
    outer loop
      vertex -2.500000e-01 -3.750000e-01 -2.500000e-01
      vertex -7.000000e-01 -3.750000e-01 0.000000e+00
      vertex -7.000000e-01 -3.750000e-01 -1.500000e+00
    endloop
  endfacet
  facet normal -1.000000e+00 0.000000e+00 0.000000e+00
    outer loop
      vertex -7.000000e-01 -1.082483e-01 -9.375028e-01
      vertex -7.000000e-01 -1.250000e-01 -1.000000e+00
      vertex -7.000000e-01 -3.750000e-01 0.000000e+00
    endloop
  endfacet
  facet normal -1.000000e+00 0.000000e+00 0.000000e+00
    outer loop
      vertex -7.000000e-01 -6.250000e-02 -8.917468e-01
      vertex -7.000000e-01 -1.082483e-01 -9.375028e-01
      vertex -7.000000e-01 -3.750000e-01 0.000000e+00
    endloop
  endfacet
  facet normal -1.000000e+00 0.000000e+00 0.000000e+00
    outer loop
      vertex -7.000000e-01 8.543513e-17 -8.750056e-01
      vertex -7.000000e-01 -6.250000e-02 -8.917468e-01
      vertex -7.000000e-01 -3.750000e-01 0.000000e+00
    endloop
  endfacet
  facet normal -1.000000e+00 0.000000e+00 0.000000e+00
    outer loop
      vertex -7.000000e-01 6.250000e-02 -8.917468e-01
      vertex -7.000000e-01 8.543513e-17 -8.750056e-01
      vertex -7.000000e-01 -3.750000e-01 0.000000e+00
    endloop
  endfacet
  facet normal -1.000000e+00 0.000000e+00 0.000000e+00
    outer loop
      vertex -7.000000e-01 1.082483e-01 -9.375028e-01
      vertex -7.000000e-01 6.250000e-02 -8.917468e-01
      vertex -7.000000e-01 -3.750000e-01 0.000000e+00
    endloop
  endfacet
  facet normal 0.000000e+00 0.000000e+00 1.000000e+00
    outer loop
      vertex -5.745000e-01 1.674682e-02 0.000000e+00
      vertex -7.000000e-01 -3.750000e-01 0.000000e+00
      vertex 7.000000e-01 -3.750000e-01 0.000000e+00
    endloop
  endfacet
  facet normal 0.000000e+00 -1.000000e+00 0.000000e+00
    outer loop
      vertex -2.500000e-01 -3.750000e-01 -2.500000e-01
      vertex 7.000000e-01 -3.750000e-01 0.000000e+00
      vertex -7.000000e-01 -3.750000e-01 0.000000e+00
    endloop
  endfacet
  facet normal 0.000000e+00 0.000000e+00 1.000000e+00
    outer loop
      vertex -6.202483e-01 6.250281e-02 0.000000e+00
      vertex -6.370000e-01 1.250000e-01 0.000000e+00
      vertex -7.000000e-01 -3.750000e-01 0.000000e+00
    endloop
  endfacet
  facet normal 0.000000e+00 0.000000e+00 1.000000e+00
    outer loop
      vertex -5.745000e-01 1.674682e-02 0.000000e+00
      vertex -6.202483e-01 6.250281e-02 0.000000e+00
      vertex -7.000000e-01 -3.750000e-01 0.000000e+00
    endloop
  endfacet
  facet normal -1.000000e+00 0.000000e+00 0.000000e+00
    outer loop
      vertex -7.000000e-01 -6.250000e-02 -1.108253e+00
      vertex -7.000000e-01 3.750000e-01 -1.500000e+00
      vertex -7.000000e-01 -3.750000e-01 -1.500000e+00
    endloop
  endfacet
  facet normal 0.000000e+00 0.000000e+00 -1.000000e+00
    outer loop
      vertex -2.500000e-01 3.750000e-01 -1.500000e+00
      vertex -7.000000e-01 -3.750000e-01 -1.500000e+00
      vertex -7.000000e-01 3.750000e-01 -1.500000e+00
    endloop
  endfacet
  facet normal -1.000000e+00 0.000000e+00 0.000000e+00
    outer loop
      vertex -7.000000e-01 -1.082483e-01 -1.062497e+00
      vertex -7.000000e-01 -3.750000e-01 -1.500000e+00
      vertex -7.000000e-01 -1.250000e-01 -1.000000e+00
    endloop
  endfacet
  facet normal -1.000000e+00 0.000000e+00 0.000000e+00
    outer loop
      vertex -7.000000e-01 -1.082483e-01 -1.062497e+00
      vertex -7.000000e-01 -6.250000e-02 -1.108253e+00
      vertex -7.000000e-01 -3.750000e-01 -1.500000e+00
    endloop
  endfacet
  facet normal 0.000000e+00 -1.000000e+00 0.000000e+00
    outer loop
      vertex -2.500000e-01 -3.750000e-01 -2.500000e-01
      vertex -7.000000e-01 -3.750000e-01 -1.500000e+00
      vertex -2.500000e-01 -3.750000e-01 -1.500000e+00
    endloop
  endfacet
  facet normal 0.000000e+00 0.000000e+00 -1.000000e+00
    outer loop
      vertex -2.500000e-01 3.750000e-01 -1.500000e+00
      vertex -2.500000e-01 -3.750000e-01 -1.500000e+00
      vertex -7.000000e-01 -3.750000e-01 -1.500000e+00
    endloop
  endfacet
  facet normal -1.000000e+00 0.000000e+00 0.000000e+00
    outer loop
      vertex -7.000000e-01 1.250000e-01 -1.000000e+00
      vertex -7.000000e-01 1.082483e-01 -9.375028e-01
      vertex -7.000000e-01 3.750000e-01 -1.500000e+00
    endloop
  endfacet
  facet normal -1.000000e+00 0.000000e+00 0.000000e+00
    outer loop
      vertex -7.000000e-01 1.082483e-01 -1.062497e+00
      vertex -7.000000e-01 1.250000e-01 -1.000000e+00
      vertex -7.000000e-01 3.750000e-01 -1.500000e+00
    endloop
  endfacet
  facet normal -1.000000e+00 0.000000e+00 0.000000e+00
    outer loop
      vertex -7.000000e-01 6.250000e-02 -1.108253e+00
      vertex -7.000000e-01 1.082483e-01 -1.062497e+00
      vertex -7.000000e-01 3.750000e-01 -1.500000e+00
    endloop
  endfacet
  facet normal -1.000000e+00 0.000000e+00 0.000000e+00
    outer loop
      vertex -7.000000e-01 4.987330e-17 -1.124994e+00
      vertex -7.000000e-01 6.250000e-02 -1.108253e+00
      vertex -7.000000e-01 3.750000e-01 -1.500000e+00
    endloop
  endfacet
  facet normal -1.000000e+00 0.000000e+00 0.000000e+00
    outer loop
      vertex -7.000000e-01 -6.250000e-02 -1.108253e+00
      vertex -7.000000e-01 4.987330e-17 -1.124994e+00
      vertex -7.000000e-01 3.750000e-01 -1.500000e+00
    endloop
  endfacet
  facet normal 0.000000e+00 9.659041e-01 -2.589000e-01
    outer loop
      vertex -2.500000e-01 -1.250000e-01 -1.000000e+00
      vertex -7.000000e-01 -1.250000e-01 -1.000000e+00
      vertex -7.000000e-01 -1.082483e-01 -9.375028e-01
    endloop
  endfacet
  facet normal 1.191521e-16 9.659041e-01 2.589000e-01
    outer loop
      vertex -2.500000e-01 -1.082483e-01 -1.062497e+00
      vertex -7.000000e-01 -1.082483e-01 -1.062497e+00
      vertex -7.000000e-01 -1.250000e-01 -1.000000e+00
    endloop
  endfacet
  facet normal 0.000000e+00 9.659041e-01 2.589000e-01
    outer loop
      vertex -2.500000e-01 -1.082483e-01 -1.062497e+00
      vertex -7.000000e-01 -1.250000e-01 -1.000000e+00
      vertex -2.500000e-01 -1.250000e-01 -1.000000e+00
    endloop
  endfacet
  facet normal 4.361734e-17 7.071661e-01 -7.070475e-01
    outer loop
      vertex -2.500000e-01 -1.082483e-01 -9.375028e-01
      vertex -7.000000e-01 -1.082483e-01 -9.375028e-01
      vertex -7.000000e-01 -6.250000e-02 -8.917468e-01
    endloop
  endfacet
  facet normal 5.957606e-17 9.659041e-01 -2.589000e-01
    outer loop
      vertex -2.500000e-01 -1.082483e-01 -9.375028e-01
      vertex -2.500000e-01 -1.250000e-01 -1.000000e+00
      vertex -7.000000e-01 -1.082483e-01 -9.375028e-01
    endloop
  endfacet
  facet normal -2.792776e-17 2.587381e-01 -9.659475e-01
    outer loop
      vertex -2.500000e-01 -6.250000e-02 -8.917468e-01
      vertex -7.000000e-01 -6.250000e-02 -8.917468e-01
      vertex -7.000000e-01 8.543513e-17 -8.750056e-01
    endloop
  endfacet
  facet normal -7.447342e-17 7.071661e-01 -7.070475e-01
    outer loop
      vertex -2.500000e-01 -1.082483e-01 -9.375028e-01
      vertex -7.000000e-01 -6.250000e-02 -8.917468e-01
      vertex -2.500000e-01 -6.250000e-02 -8.917468e-01
    endloop
  endfacet
  facet normal 1.471194e-17 -2.587381e-01 -9.659475e-01
    outer loop
      vertex -2.500000e-01 1.110223e-16 -8.750056e-01
      vertex -7.000000e-01 8.543513e-17 -8.750056e-01
      vertex -7.000000e-01 6.250000e-02 -8.917468e-01
    endloop
  endfacet
  facet normal -1.489468e-17 2.587381e-01 -9.659475e-01
    outer loop
      vertex -2.500000e-01 -6.250000e-02 -8.917468e-01
      vertex -7.000000e-01 8.543513e-17 -8.750056e-01
      vertex -2.500000e-01 1.110223e-16 -8.750056e-01
    endloop
  endfacet
  facet normal 1.090433e-17 -7.071661e-01 -7.070475e-01
    outer loop
      vertex -2.500000e-01 6.250000e-02 -8.917468e-01
      vertex -7.000000e-01 6.250000e-02 -8.917468e-01
      vertex -7.000000e-01 1.082483e-01 -9.375028e-01
    endloop
  endfacet
  facet normal 0.000000e+00 -2.587381e-01 -9.659475e-01
    outer loop
      vertex -2.500000e-01 1.110223e-16 -8.750056e-01
      vertex -7.000000e-01 6.250000e-02 -8.917468e-01
      vertex -2.500000e-01 6.250000e-02 -8.917468e-01
    endloop
  endfacet
  facet normal 0.000000e+00 -9.659041e-01 -2.589000e-01
    outer loop
      vertex -2.500000e-01 1.082483e-01 -9.375028e-01
      vertex -7.000000e-01 1.082483e-01 -9.375028e-01
      vertex -7.000000e-01 1.250000e-01 -1.000000e+00
    endloop
  endfacet
  facet normal 0.000000e+00 -7.071661e-01 -7.070475e-01
    outer loop
      vertex -2.500000e-01 6.250000e-02 -8.917468e-01
      vertex -7.000000e-01 1.082483e-01 -9.375028e-01
      vertex -2.500000e-01 1.082483e-01 -9.375028e-01
    endloop
  endfacet
  facet normal 0.000000e+00 -9.659041e-01 2.589000e-01
    outer loop
      vertex -2.500000e-01 1.250000e-01 -1.000000e+00
      vertex -7.000000e-01 1.250000e-01 -1.000000e+00
      vertex -7.000000e-01 1.082483e-01 -1.062497e+00
    endloop
  endfacet
  facet normal 0.000000e+00 -9.659041e-01 -2.589000e-01
    outer loop
      vertex -2.500000e-01 1.082483e-01 -9.375028e-01
      vertex -7.000000e-01 1.250000e-01 -1.000000e+00
      vertex -2.500000e-01 1.250000e-01 -1.000000e+00
    endloop
  endfacet
  facet normal -3.270715e-16 -7.071661e-01 7.070475e-01
    outer loop
      vertex -2.500000e-01 1.082483e-01 -1.062497e+00
      vertex -7.000000e-01 1.082483e-01 -1.062497e+00
      vertex -7.000000e-01 6.250000e-02 -1.108253e+00
    endloop
  endfacet
  facet normal -9.681544e-17 -9.659041e-01 2.589000e-01
    outer loop
      vertex -2.500000e-01 1.250000e-01 -1.000000e+00
      vertex -7.000000e-01 1.082483e-01 -1.062497e+00
      vertex -2.500000e-01 1.082483e-01 -1.062497e+00
    endloop
  endfacet
  facet normal 3.191744e-17 -2.587381e-01 9.659475e-01
    outer loop
      vertex -2.500000e-01 6.250000e-02 -1.108253e+00
      vertex -7.000000e-01 6.250000e-02 -1.108253e+00
      vertex -7.000000e-01 4.987330e-17 -1.124994e+00
    endloop
  endfacet
  facet normal 8.936810e-17 -7.071661e-01 7.070475e-01
    outer loop
      vertex -2.500000e-01 1.082483e-01 -1.062497e+00
      vertex -7.000000e-01 6.250000e-02 -1.108253e+00
      vertex -2.500000e-01 6.250000e-02 -1.108253e+00
    endloop
  endfacet
  facet normal -3.241615e-18 2.587381e-01 9.659475e-01
    outer loop
      vertex -2.500000e-01 5.551115e-17 -1.124994e+00
      vertex -7.000000e-01 4.987330e-17 -1.124994e+00
      vertex -7.000000e-01 -6.250000e-02 -1.108253e+00
    endloop
  endfacet
  facet normal 0.000000e+00 -2.587381e-01 9.659475e-01
    outer loop
      vertex -2.500000e-01 6.250000e-02 -1.108253e+00
      vertex -7.000000e-01 4.987330e-17 -1.124994e+00
      vertex -2.500000e-01 5.551115e-17 -1.124994e+00
    endloop
  endfacet
  facet normal -7.633034e-17 7.071661e-01 7.070475e-01
    outer loop
      vertex -2.500000e-01 -6.250000e-02 -1.108253e+00
      vertex -7.000000e-01 -6.250000e-02 -1.108253e+00
      vertex -7.000000e-01 -1.082483e-01 -1.062497e+00
    endloop
  endfacet
  facet normal -2.978937e-17 2.587381e-01 9.659475e-01
    outer loop
      vertex -2.500000e-01 5.551115e-17 -1.124994e+00
      vertex -7.000000e-01 -6.250000e-02 -1.108253e+00
      vertex -2.500000e-01 -6.250000e-02 -1.108253e+00
    endloop
  endfacet
  facet normal 8.936810e-17 7.071661e-01 7.070475e-01
    outer loop
      vertex -2.500000e-01 -6.250000e-02 -1.108253e+00
      vertex -7.000000e-01 -1.082483e-01 -1.062497e+00
      vertex -2.500000e-01 -1.082483e-01 -1.062497e+00
    endloop
  endfacet
  facet normal 1.000000e+00 0.000000e+00 0.000000e+00
    outer loop
      vertex 7.000000e-01 1.250000e-01 -1.000000e+00
      vertex 7.000000e-01 3.750000e-01 -1.500000e+00
      vertex 7.000000e-01 3.750000e-01 0.000000e+00
    endloop
  endfacet
  facet normal 0.000000e+00 1.000000e+00 0.000000e+00
    outer loop
      vertex 2.500000e-01 3.750000e-01 -2.500000e-01
      vertex 7.000000e-01 3.750000e-01 0.000000e+00
      vertex 7.000000e-01 3.750000e-01 -1.500000e+00
    endloop
  endfacet
  facet normal 1.000000e+00 0.000000e+00 0.000000e+00
    outer loop
      vertex 7.000000e-01 -1.082483e-01 -9.375028e-01
      vertex 7.000000e-01 3.750000e-01 0.000000e+00
      vertex 7.000000e-01 -3.750000e-01 0.000000e+00
    endloop
  endfacet
  facet normal 0.000000e+00 0.000000e+00 1.000000e+00
    outer loop
      vertex 6.370000e-01 1.250000e-01 0.000000e+00
      vertex 7.000000e-01 -3.750000e-01 0.000000e+00
      vertex 7.000000e-01 3.750000e-01 0.000000e+00
    endloop
  endfacet
  facet normal 1.000000e+00 0.000000e+00 0.000000e+00
    outer loop
      vertex 7.000000e-01 1.082483e-01 -9.375028e-01
      vertex 7.000000e-01 1.250000e-01 -1.000000e+00
      vertex 7.000000e-01 3.750000e-01 0.000000e+00
    endloop
  endfacet
  facet normal 1.000000e+00 0.000000e+00 0.000000e+00
    outer loop
      vertex 7.000000e-01 6.250000e-02 -8.917468e-01
      vertex 7.000000e-01 1.082483e-01 -9.375028e-01
      vertex 7.000000e-01 3.750000e-01 0.000000e+00
    endloop
  endfacet
  facet normal 1.000000e+00 0.000000e+00 0.000000e+00
    outer loop
      vertex 7.000000e-01 8.543513e-17 -8.750056e-01
      vertex 7.000000e-01 6.250000e-02 -8.917468e-01
      vertex 7.000000e-01 3.750000e-01 0.000000e+00
    endloop
  endfacet
  facet normal 1.000000e+00 0.000000e+00 0.000000e+00
    outer loop
      vertex 7.000000e-01 -6.250000e-02 -8.917468e-01
      vertex 7.000000e-01 8.543513e-17 -8.750056e-01
      vertex 7.000000e-01 3.750000e-01 0.000000e+00
    endloop
  endfacet
  facet normal 1.000000e+00 0.000000e+00 0.000000e+00
    outer loop
      vertex 7.000000e-01 -1.082483e-01 -9.375028e-01
      vertex 7.000000e-01 -6.250000e-02 -8.917468e-01
      vertex 7.000000e-01 3.750000e-01 0.000000e+00
    endloop
  endfacet
  facet normal 0.000000e+00 0.000000e+00 1.000000e+00
    outer loop
      vertex 6.202483e-01 1.874972e-01 0.000000e+00
      vertex 6.370000e-01 1.250000e-01 0.000000e+00
      vertex 7.000000e-01 3.750000e-01 0.000000e+00
    endloop
  endfacet
  facet normal 0.000000e+00 0.000000e+00 1.000000e+00
    outer loop
      vertex 5.745000e-01 2.332532e-01 0.000000e+00
      vertex 6.202483e-01 1.874972e-01 0.000000e+00
      vertex 7.000000e-01 3.750000e-01 0.000000e+00
    endloop
  endfacet
  facet normal 0.000000e+00 0.000000e+00 1.000000e+00
    outer loop
      vertex 5.120000e-01 2.499944e-01 0.000000e+00
      vertex 5.745000e-01 2.332532e-01 0.000000e+00
      vertex 7.000000e-01 3.750000e-01 0.000000e+00
    endloop
  endfacet
  facet normal 1.000000e+00 0.000000e+00 0.000000e+00
    outer loop
      vertex 7.000000e-01 6.250000e-02 -1.108253e+00
      vertex 7.000000e-01 -3.750000e-01 -1.500000e+00
      vertex 7.000000e-01 3.750000e-01 -1.500000e+00
    endloop
  endfacet
  facet normal 0.000000e+00 0.000000e+00 -1.000000e+00
    outer loop
      vertex 2.500000e-01 -3.750000e-01 -1.500000e+00
      vertex 7.000000e-01 3.750000e-01 -1.500000e+00
      vertex 7.000000e-01 -3.750000e-01 -1.500000e+00
    endloop
  endfacet
  facet normal 1.000000e+00 0.000000e+00 0.000000e+00
    outer loop
      vertex 7.000000e-01 1.082483e-01 -1.062497e+00
      vertex 7.000000e-01 6.250000e-02 -1.108253e+00
      vertex 7.000000e-01 3.750000e-01 -1.500000e+00
    endloop
  endfacet
  facet normal 1.000000e+00 0.000000e+00 0.000000e+00
    outer loop
      vertex 7.000000e-01 1.250000e-01 -1.000000e+00
      vertex 7.000000e-01 1.082483e-01 -1.062497e+00
      vertex 7.000000e-01 3.750000e-01 -1.500000e+00
    endloop
  endfacet
  facet normal 0.000000e+00 0.000000e+00 -1.000000e+00
    outer loop
      vertex 2.500000e-01 3.750000e-01 -1.500000e+00
      vertex 7.000000e-01 3.750000e-01 -1.500000e+00
      vertex 2.500000e-01 -3.750000e-01 -1.500000e+00
    endloop
  endfacet
  facet normal 0.000000e+00 1.000000e+00 0.000000e+00
    outer loop
      vertex 2.500000e-01 3.750000e-01 -2.500000e-01
      vertex 7.000000e-01 3.750000e-01 -1.500000e+00
      vertex 2.500000e-01 3.750000e-01 -1.500000e+00
    endloop
  endfacet
  facet normal 1.000000e+00 0.000000e+00 0.000000e+00
    outer loop
      vertex 7.000000e-01 -1.082483e-01 -9.375028e-01
      vertex 7.000000e-01 -3.750000e-01 0.000000e+00
      vertex 7.000000e-01 -3.750000e-01 -1.500000e+00
    endloop
  endfacet
  facet normal 0.000000e+00 -1.000000e+00 0.000000e+00
    outer loop
      vertex 2.500000e-01 -3.750000e-01 -1.500000e+00
      vertex 7.000000e-01 -3.750000e-01 -1.500000e+00
      vertex 7.000000e-01 -3.750000e-01 0.000000e+00
    endloop
  endfacet
  facet normal 1.000000e+00 0.000000e+00 0.000000e+00
    outer loop
      vertex 7.000000e-01 -1.082483e-01 -1.062497e+00
      vertex 7.000000e-01 -1.250000e-01 -1.000000e+00
      vertex 7.000000e-01 -3.750000e-01 -1.500000e+00
    endloop
  endfacet
  facet normal 1.000000e+00 0.000000e+00 0.000000e+00
    outer loop
      vertex 7.000000e-01 -1.082483e-01 -9.375028e-01
      vertex 7.000000e-01 -3.750000e-01 -1.500000e+00
      vertex 7.000000e-01 -1.250000e-01 -1.000000e+00
    endloop
  endfacet
  facet normal 1.000000e+00 0.000000e+00 0.000000e+00
    outer loop
      vertex 7.000000e-01 -6.250000e-02 -1.108253e+00
      vertex 7.000000e-01 -1.082483e-01 -1.062497e+00
      vertex 7.000000e-01 -3.750000e-01 -1.500000e+00
    endloop
  endfacet
  facet normal 1.000000e+00 0.000000e+00 0.000000e+00
    outer loop
      vertex 7.000000e-01 4.987330e-17 -1.124994e+00
      vertex 7.000000e-01 -6.250000e-02 -1.108253e+00
      vertex 7.000000e-01 -3.750000e-01 -1.500000e+00
    endloop
  endfacet
  facet normal 1.000000e+00 0.000000e+00 0.000000e+00
    outer loop
      vertex 7.000000e-01 6.250000e-02 -1.108253e+00
      vertex 7.000000e-01 4.987330e-17 -1.124994e+00
      vertex 7.000000e-01 -3.750000e-01 -1.500000e+00
    endloop
  endfacet
  facet normal 0.000000e+00 0.000000e+00 1.000000e+00
    outer loop
      vertex -4.037517e-01 6.250281e-02 0.000000e+00
      vertex 7.000000e-01 -3.750000e-01 0.000000e+00
      vertex -3.870000e-01 1.250000e-01 0.000000e+00
    endloop
  endfacet
  facet normal 0.000000e+00 0.000000e+00 1.000000e+00
    outer loop
      vertex 4.037517e-01 6.250281e-02 0.000000e+00
      vertex -3.870000e-01 1.250000e-01 0.000000e+00
      vertex 7.000000e-01 -3.750000e-01 0.000000e+00
    endloop
  endfacet
  facet normal 0.000000e+00 0.000000e+00 1.000000e+00
    outer loop
      vertex -5.120000e-01 5.616531e-06 0.000000e+00
      vertex -5.745000e-01 1.674682e-02 0.000000e+00
      vertex 7.000000e-01 -3.750000e-01 0.000000e+00
    endloop
  endfacet
  facet normal 0.000000e+00 0.000000e+00 1.000000e+00
    outer loop
      vertex -4.495000e-01 1.674682e-02 0.000000e+00
      vertex -5.120000e-01 5.616531e-06 0.000000e+00
      vertex 7.000000e-01 -3.750000e-01 0.000000e+00
    endloop
  endfacet
  facet normal 0.000000e+00 0.000000e+00 1.000000e+00
    outer loop
      vertex -4.037517e-01 6.250281e-02 0.000000e+00
      vertex -4.495000e-01 1.674682e-02 0.000000e+00
      vertex 7.000000e-01 -3.750000e-01 0.000000e+00
    endloop
  endfacet
  facet normal 0.000000e+00 0.000000e+00 1.000000e+00
    outer loop
      vertex 6.202483e-01 6.250281e-02 0.000000e+00
      vertex 7.000000e-01 -3.750000e-01 0.000000e+00
      vertex 6.370000e-01 1.250000e-01 0.000000e+00
    endloop
  endfacet
  facet normal 0.000000e+00 0.000000e+00 1.000000e+00
    outer loop
      vertex 4.495000e-01 1.674682e-02 0.000000e+00
      vertex 4.037517e-01 6.250281e-02 0.000000e+00
      vertex 7.000000e-01 -3.750000e-01 0.000000e+00
    endloop
  endfacet
  facet normal 0.000000e+00 0.000000e+00 1.000000e+00
    outer loop
      vertex 5.120000e-01 5.616531e-06 0.000000e+00
      vertex 4.495000e-01 1.674682e-02 0.000000e+00
      vertex 7.000000e-01 -3.750000e-01 0.000000e+00
    endloop
  endfacet
  facet normal 0.000000e+00 0.000000e+00 1.000000e+00
    outer loop
      vertex 5.745000e-01 1.674682e-02 0.000000e+00
      vertex 5.120000e-01 5.616531e-06 0.000000e+00
      vertex 7.000000e-01 -3.750000e-01 0.000000e+00
    endloop
  endfacet
  facet normal 0.000000e+00 0.000000e+00 1.000000e+00
    outer loop
      vertex 6.202483e-01 6.250281e-02 0.000000e+00
      vertex 5.745000e-01 1.674682e-02 0.000000e+00
      vertex 7.000000e-01 -3.750000e-01 0.000000e+00
    endloop
  endfacet
  facet normal 0.000000e+00 -1.000000e+00 0.000000e+00
    outer loop
      vertex 2.500000e-01 -3.750000e-01 -2.500000e-01
      vertex 2.500000e-01 -3.750000e-01 -1.500000e+00
      vertex 7.000000e-01 -3.750000e-01 0.000000e+00
    endloop
  endfacet
  facet normal 0.000000e+00 -1.000000e+00 0.000000e+00
    outer loop
      vertex -2.500000e-01 -3.750000e-01 -2.500000e-01
      vertex 2.500000e-01 -3.750000e-01 -2.500000e-01
      vertex 7.000000e-01 -3.750000e-01 0.000000e+00
    endloop
  endfacet
  facet normal 0.000000e+00 9.659041e-01 2.589000e-01
    outer loop
      vertex 2.500000e-01 -1.250000e-01 -1.000000e+00
      vertex 7.000000e-01 -1.250000e-01 -1.000000e+00
      vertex 7.000000e-01 -1.082483e-01 -1.062497e+00
    endloop
  endfacet
  facet normal -5.957606e-17 9.659041e-01 -2.589000e-01
    outer loop
      vertex 2.500000e-01 -1.082483e-01 -9.375028e-01
      vertex 7.000000e-01 -1.082483e-01 -9.375028e-01
      vertex 7.000000e-01 -1.250000e-01 -1.000000e+00
    endloop
  endfacet
  facet normal 0.000000e+00 9.659041e-01 -2.589000e-01
    outer loop
      vertex 2.500000e-01 -1.082483e-01 -9.375028e-01
      vertex 7.000000e-01 -1.250000e-01 -1.000000e+00
      vertex 2.500000e-01 -1.250000e-01 -1.000000e+00
    endloop
  endfacet
  facet normal -8.723467e-17 7.071661e-01 7.070475e-01
    outer loop
      vertex 2.500000e-01 -1.082483e-01 -1.062497e+00
      vertex 7.000000e-01 -1.082483e-01 -1.062497e+00
      vertex 7.000000e-01 -6.250000e-02 -1.108253e+00
    endloop
  endfacet
  facet normal -1.191521e-16 9.659041e-01 2.589000e-01
    outer loop
      vertex 2.500000e-01 -1.082483e-01 -1.062497e+00
      vertex 2.500000e-01 -1.250000e-01 -1.000000e+00
      vertex 7.000000e-01 -1.082483e-01 -1.062497e+00
    endloop
  endfacet
  facet normal 2.792776e-17 2.587381e-01 9.659475e-01
    outer loop
      vertex 2.500000e-01 -6.250000e-02 -1.108253e+00
      vertex 7.000000e-01 -6.250000e-02 -1.108253e+00
      vertex 7.000000e-01 4.987330e-17 -1.124994e+00
    endloop
  endfacet
  facet normal 8.936810e-17 7.071661e-01 7.070475e-01
    outer loop
      vertex 2.500000e-01 -1.082483e-01 -1.062497e+00
      vertex 7.000000e-01 -6.250000e-02 -1.108253e+00
      vertex 2.500000e-01 -6.250000e-02 -1.108253e+00
    endloop
  endfacet
  facet normal -3.241615e-18 -2.587381e-01 9.659475e-01
    outer loop
      vertex 2.500000e-01 5.551115e-17 -1.124994e+00
      vertex 7.000000e-01 4.987330e-17 -1.124994e+00
      vertex 7.000000e-01 6.250000e-02 -1.108253e+00
    endloop
  endfacet
  facet normal 7.447342e-18 2.587381e-01 9.659475e-01
    outer loop
      vertex 2.500000e-01 -6.250000e-02 -1.108253e+00
      vertex 7.000000e-01 4.987330e-17 -1.124994e+00
      vertex 2.500000e-01 5.551115e-17 -1.124994e+00
    endloop
  endfacet
  facet normal -8.723467e-17 -7.071661e-01 7.070475e-01
    outer loop
      vertex 2.500000e-01 6.250000e-02 -1.108253e+00
      vertex 7.000000e-01 6.250000e-02 -1.108253e+00
      vertex 7.000000e-01 1.082483e-01 -1.062497e+00
    endloop
  endfacet
  facet normal -2.978937e-17 -2.587381e-01 9.659475e-01
    outer loop
      vertex 2.500000e-01 5.551115e-17 -1.124994e+00
      vertex 7.000000e-01 6.250000e-02 -1.108253e+00
      vertex 2.500000e-01 6.250000e-02 -1.108253e+00
    endloop
  endfacet
  facet normal 9.796165e-17 -9.659041e-01 2.589000e-01
    outer loop
      vertex 2.500000e-01 1.082483e-01 -1.062497e+00
      vertex 7.000000e-01 1.082483e-01 -1.062497e+00
      vertex 7.000000e-01 1.250000e-01 -1.000000e+00
    endloop
  endfacet
  facet normal 3.276830e-16 -7.071661e-01 7.070475e-01
    outer loop
      vertex 2.500000e-01 6.250000e-02 -1.108253e+00
      vertex 7.000000e-01 1.082483e-01 -1.062497e+00
      vertex 2.500000e-01 1.082483e-01 -1.062497e+00
    endloop
  endfacet
  facet normal 0.000000e+00 -9.659041e-01 -2.589000e-01
    outer loop
      vertex 2.500000e-01 1.250000e-01 -1.000000e+00
      vertex 7.000000e-01 1.250000e-01 -1.000000e+00
      vertex 7.000000e-01 1.082483e-01 -9.375028e-01
    endloop
  endfacet
  facet normal 0.000000e+00 -9.659041e-01 2.589000e-01
    outer loop
      vertex 2.500000e-01 1.082483e-01 -1.062497e+00
      vertex 7.000000e-01 1.250000e-01 -1.000000e+00
      vertex 2.500000e-01 1.250000e-01 -1.000000e+00
    endloop
  endfacet
  facet normal 0.000000e+00 -7.071661e-01 -7.070475e-01
    outer loop
      vertex 2.500000e-01 1.082483e-01 -9.375028e-01
      vertex 7.000000e-01 1.082483e-01 -9.375028e-01
      vertex 7.000000e-01 6.250000e-02 -8.917468e-01
    endloop
  endfacet
  facet normal 0.000000e+00 -9.659041e-01 -2.589000e-01
    outer loop
      vertex 2.500000e-01 1.250000e-01 -1.000000e+00
      vertex 7.000000e-01 1.082483e-01 -9.375028e-01
      vertex 2.500000e-01 1.082483e-01 -9.375028e-01
    endloop
  endfacet
  facet normal -3.989680e-18 -2.587381e-01 -9.659475e-01
    outer loop
      vertex 2.500000e-01 6.250000e-02 -8.917468e-01
      vertex 7.000000e-01 6.250000e-02 -8.917468e-01
      vertex 7.000000e-01 8.543513e-17 -8.750056e-01
    endloop
  endfacet
  facet normal -1.489468e-17 -7.071661e-01 -7.070475e-01
    outer loop
      vertex 2.500000e-01 1.082483e-01 -9.375028e-01
      vertex 7.000000e-01 6.250000e-02 -8.917468e-01
      vertex 2.500000e-01 6.250000e-02 -8.917468e-01
    endloop
  endfacet
  facet normal 1.471194e-17 2.587381e-01 -9.659475e-01
    outer loop
      vertex 2.500000e-01 1.110223e-16 -8.750056e-01
      vertex 7.000000e-01 8.543513e-17 -8.750056e-01
      vertex 7.000000e-01 -6.250000e-02 -8.917468e-01
    endloop
  endfacet
  facet normal -2.234202e-17 -2.587381e-01 -9.659475e-01
    outer loop
      vertex 2.500000e-01 6.250000e-02 -8.917468e-01
      vertex 7.000000e-01 8.543513e-17 -8.750056e-01
      vertex 2.500000e-01 1.110223e-16 -8.750056e-01
    endloop
  endfacet
  facet normal 7.633034e-17 7.071661e-01 -7.070475e-01
    outer loop
      vertex 2.500000e-01 -6.250000e-02 -8.917468e-01
      vertex 7.000000e-01 -6.250000e-02 -8.917468e-01
      vertex 7.000000e-01 -1.082483e-01 -9.375028e-01
    endloop
  endfacet
  facet normal 3.723671e-17 2.587381e-01 -9.659475e-01
    outer loop
      vertex 2.500000e-01 1.110223e-16 -8.750056e-01
      vertex 7.000000e-01 -6.250000e-02 -8.917468e-01
      vertex 2.500000e-01 -6.250000e-02 -8.917468e-01
    endloop
  endfacet
  facet normal -4.468405e-17 7.071661e-01 -7.070475e-01
    outer loop
      vertex 2.500000e-01 -6.250000e-02 -8.917468e-01
      vertex 7.000000e-01 -1.082483e-01 -9.375028e-01
      vertex 2.500000e-01 -1.082483e-01 -9.375028e-01
    endloop
  endfacet
  facet normal 0.000000e+00 0.000000e+00 1.000000e+00
    outer loop
      vertex 3.870000e-01 1.250000e-01 0.000000e+00
      vertex -4.037517e-01 1.874972e-01 0.000000e+00
      vertex -3.870000e-01 1.250000e-01 0.000000e+00
    endloop
  endfacet
  facet normal -9.659041e-01 -2.589000e-01 -1.000510e-16
    outer loop
      vertex -3.870000e-01 1.250000e-01 -5.000000e-01
      vertex -3.870000e-01 1.250000e-01 0.000000e+00
      vertex -4.037517e-01 1.874972e-01 0.000000e+00
    endloop
  endfacet
  facet normal -9.659041e-01 2.589000e-01 -8.622843e-06
    outer loop
      vertex -4.037431e-01 6.251809e-02 -5.000000e-01
      vertex -4.037517e-01 6.250281e-02 0.000000e+00
      vertex -3.870000e-01 1.250000e-01 0.000000e+00
    endloop
  endfacet
  facet normal 0.000000e+00 0.000000e+00 1.000000e+00
    outer loop
      vertex 4.037517e-01 6.250281e-02 0.000000e+00
      vertex 3.870000e-01 1.250000e-01 0.000000e+00
      vertex -3.870000e-01 1.250000e-01 0.000000e+00
    endloop
  endfacet
  facet normal -9.659214e-01 2.588357e-01 -1.139742e-16
    outer loop
      vertex -4.037431e-01 6.251809e-02 -5.000000e-01
      vertex -3.870000e-01 1.250000e-01 0.000000e+00
      vertex -3.870000e-01 1.250000e-01 -5.000000e-01
    endloop
  endfacet
  facet normal 0.000000e+00 0.000000e+00 1.000000e+00
    outer loop
      vertex 3.870000e-01 1.250000e-01 0.000000e+00
      vertex -4.495000e-01 2.332532e-01 0.000000e+00
      vertex -4.037517e-01 1.874972e-01 0.000000e+00
    endloop
  endfacet
  facet normal -7.071661e-01 -7.070475e-01 9.499579e-06
    outer loop
      vertex -4.037431e-01 1.874819e-01 -5.000000e-01
      vertex -4.037517e-01 1.874972e-01 0.000000e+00
      vertex -4.495000e-01 2.332532e-01 0.000000e+00
    endloop
  endfacet
  facet normal -9.659214e-01 -2.588357e-01 -8.625106e-06
    outer loop
      vertex -4.037431e-01 1.874819e-01 -5.000000e-01
      vertex -3.870000e-01 1.250000e-01 -5.000000e-01
      vertex -4.037517e-01 1.874972e-01 0.000000e+00
    endloop
  endfacet
  facet normal -2.587381e-01 -9.659475e-01 2.221525e-06
    outer loop
      vertex -4.495181e-01 2.332569e-01 -5.000000e-01
      vertex -4.495000e-01 2.332532e-01 0.000000e+00
      vertex -5.120000e-01 2.499944e-01 0.000000e+00
    endloop
  endfacet
  facet normal -7.071068e-01 -7.071068e-01 2.035271e-05
    outer loop
      vertex -4.037431e-01 1.874819e-01 -5.000000e-01
      vertex -4.495000e-01 2.332532e-01 0.000000e+00
      vertex -4.495181e-01 2.332569e-01 -5.000000e-01
    endloop
  endfacet
  facet normal 2.587381e-01 -9.659475e-01 -1.085055e-05
    outer loop
      vertex -5.120000e-01 2.500000e-01 -5.000000e-01
      vertex -5.120000e-01 2.499944e-01 0.000000e+00
      vertex -5.745000e-01 2.332532e-01 0.000000e+00
    endloop
  endfacet
  facet normal -2.588357e-01 -9.659214e-01 -1.085025e-05
    outer loop
      vertex -4.495181e-01 2.332569e-01 -5.000000e-01
      vertex -5.120000e-01 2.499944e-01 0.000000e+00
      vertex -5.120000e-01 2.500000e-01 -5.000000e-01
    endloop
  endfacet
  facet normal 7.071661e-01 -7.070475e-01 2.035529e-05
    outer loop
      vertex -5.744819e-01 2.332569e-01 -5.000000e-01
      vertex -5.745000e-01 2.332532e-01 0.000000e+00
      vertex -6.202483e-01 1.874972e-01 0.000000e+00
    endloop
  endfacet
  facet normal 2.588357e-01 -9.659214e-01 2.225249e-06
    outer loop
      vertex -5.120000e-01 2.500000e-01 -5.000000e-01
      vertex -5.745000e-01 2.332532e-01 0.000000e+00
      vertex -5.744819e-01 2.332569e-01 -5.000000e-01
    endloop
  endfacet
  facet normal 9.659041e-01 -2.589000e-01 -8.622843e-06
    outer loop
      vertex -6.202569e-01 1.874819e-01 -5.000000e-01
      vertex -6.202483e-01 1.874972e-01 0.000000e+00
      vertex -6.370000e-01 1.250000e-01 0.000000e+00
    endloop
  endfacet
  facet normal 7.071068e-01 -7.071068e-01 9.502405e-06
    outer loop
      vertex -5.744819e-01 2.332569e-01 -5.000000e-01
      vertex -6.202483e-01 1.874972e-01 0.000000e+00
      vertex -6.202569e-01 1.874819e-01 -5.000000e-01
    endloop
  endfacet
  facet normal 9.659041e-01 2.589000e-01 -1.437184e-17
    outer loop
      vertex -6.370000e-01 1.250000e-01 -5.000000e-01
      vertex -6.370000e-01 1.250000e-01 0.000000e+00
      vertex -6.202483e-01 6.250281e-02 0.000000e+00
    endloop
  endfacet
  facet normal 9.659214e-01 -2.588357e-01 1.340873e-17
    outer loop
      vertex -6.202569e-01 1.874819e-01 -5.000000e-01
      vertex -6.370000e-01 1.250000e-01 0.000000e+00
      vertex -6.370000e-01 1.250000e-01 -5.000000e-01
    endloop
  endfacet
  facet normal 7.071661e-01 7.070475e-01 9.499579e-06
    outer loop
      vertex -6.202569e-01 6.251809e-02 -5.000000e-01
      vertex -6.202483e-01 6.250281e-02 0.000000e+00
      vertex -5.745000e-01 1.674682e-02 0.000000e+00
    endloop
  endfacet
  facet normal 9.659214e-01 2.588357e-01 -8.625106e-06
    outer loop
      vertex -6.370000e-01 1.250000e-01 -5.000000e-01
      vertex -6.202483e-01 6.250281e-02 0.000000e+00
      vertex -6.202569e-01 6.251809e-02 -5.000000e-01
    endloop
  endfacet
  facet normal 2.587381e-01 9.659475e-01 2.221525e-06
    outer loop
      vertex -5.744819e-01 1.674313e-02 -5.000000e-01
      vertex -5.745000e-01 1.674682e-02 0.000000e+00
      vertex -5.120000e-01 5.616531e-06 0.000000e+00
    endloop
  endfacet
  facet normal 7.071068e-01 7.071068e-01 2.035271e-05
    outer loop
      vertex -6.202569e-01 6.251809e-02 -5.000000e-01
      vertex -5.745000e-01 1.674682e-02 0.000000e+00
      vertex -5.744819e-01 1.674313e-02 -5.000000e-01
    endloop
  endfacet
  facet normal -2.587381e-01 9.659475e-01 -1.085055e-05
    outer loop
      vertex -5.120000e-01 0.000000e+00 -5.000000e-01
      vertex -5.120000e-01 5.616531e-06 0.000000e+00
      vertex -4.495000e-01 1.674682e-02 0.000000e+00
    endloop
  endfacet
  facet normal 2.588357e-01 9.659214e-01 -1.085025e-05
    outer loop
      vertex -5.744819e-01 1.674313e-02 -5.000000e-01
      vertex -5.120000e-01 5.616531e-06 0.000000e+00
      vertex -5.120000e-01 0.000000e+00 -5.000000e-01
    endloop
  endfacet
  facet normal -7.071661e-01 7.070475e-01 2.035529e-05
    outer loop
      vertex -4.495181e-01 1.674313e-02 -5.000000e-01
      vertex -4.495000e-01 1.674682e-02 0.000000e+00
      vertex -4.037517e-01 6.250281e-02 0.000000e+00
    endloop
  endfacet
  facet normal -2.588357e-01 9.659214e-01 2.225249e-06
    outer loop
      vertex -5.120000e-01 0.000000e+00 -5.000000e-01
      vertex -4.495000e-01 1.674682e-02 0.000000e+00
      vertex -4.495181e-01 1.674313e-02 -5.000000e-01
    endloop
  endfacet
  facet normal -7.071068e-01 7.071068e-01 9.502405e-06
    outer loop
      vertex -4.495181e-01 1.674313e-02 -5.000000e-01
      vertex -4.037517e-01 6.250281e-02 0.000000e+00
      vertex -4.037431e-01 6.251809e-02 -5.000000e-01
    endloop
  endfacet
  facet normal -9.659041e-01 -2.589000e-01 7.185919e-18
    outer loop
      vertex 6.370000e-01 1.250000e-01 -5.000000e-01
      vertex 6.370000e-01 1.250000e-01 0.000000e+00
      vertex 6.202483e-01 1.874972e-01 0.000000e+00
    endloop
  endfacet
  facet normal -9.659041e-01 2.589000e-01 -8.622843e-06
    outer loop
      vertex 6.202569e-01 6.251809e-02 -5.000000e-01
      vertex 6.202483e-01 6.250281e-02 0.000000e+00
      vertex 6.370000e-01 1.250000e-01 0.000000e+00
    endloop
  endfacet
  facet normal -9.659214e-01 2.588357e-01 -6.704366e-18
    outer loop
      vertex 6.202569e-01 6.251809e-02 -5.000000e-01
      vertex 6.370000e-01 1.250000e-01 0.000000e+00
      vertex 6.370000e-01 1.250000e-01 -5.000000e-01
    endloop
  endfacet
  facet normal -7.071661e-01 -7.070475e-01 9.499579e-06
    outer loop
      vertex 6.202569e-01 1.874819e-01 -5.000000e-01
      vertex 6.202483e-01 1.874972e-01 0.000000e+00
      vertex 5.745000e-01 2.332532e-01 0.000000e+00
    endloop
  endfacet
  facet normal -9.659214e-01 -2.588357e-01 -8.625106e-06
    outer loop
      vertex 6.202569e-01 1.874819e-01 -5.000000e-01
      vertex 6.370000e-01 1.250000e-01 -5.000000e-01
      vertex 6.202483e-01 1.874972e-01 0.000000e+00
    endloop
  endfacet
  facet normal -2.587381e-01 -9.659475e-01 2.221525e-06
    outer loop
      vertex 5.744819e-01 2.332569e-01 -5.000000e-01
      vertex 5.745000e-01 2.332532e-01 0.000000e+00
      vertex 5.120000e-01 2.499944e-01 0.000000e+00
    endloop
  endfacet
  facet normal -7.071068e-01 -7.071068e-01 2.035271e-05
    outer loop
      vertex 6.202569e-01 1.874819e-01 -5.000000e-01
      vertex 5.745000e-01 2.332532e-01 0.000000e+00
      vertex 5.744819e-01 2.332569e-01 -5.000000e-01
    endloop
  endfacet
  facet normal 2.587381e-01 -9.659475e-01 -1.085055e-05
    outer loop
      vertex 5.120000e-01 2.500000e-01 -5.000000e-01
      vertex 5.120000e-01 2.499944e-01 0.000000e+00
      vertex 4.495000e-01 2.332532e-01 0.000000e+00
    endloop
  endfacet
  facet normal -2.588357e-01 -9.659214e-01 -1.085025e-05
    outer loop
      vertex 5.744819e-01 2.332569e-01 -5.000000e-01
      vertex 5.120000e-01 2.499944e-01 0.000000e+00
      vertex 5.120000e-01 2.500000e-01 -5.000000e-01
    endloop
  endfacet
  facet normal 7.071661e-01 -7.070475e-01 2.035529e-05
    outer loop
      vertex 4.495181e-01 2.332569e-01 -5.000000e-01
      vertex 4.495000e-01 2.332532e-01 0.000000e+00
      vertex 4.037517e-01 1.874972e-01 0.000000e+00
    endloop
  endfacet
  facet normal 2.588357e-01 -9.659214e-01 2.225249e-06
    outer loop
      vertex 5.120000e-01 2.500000e-01 -5.000000e-01
      vertex 4.495000e-01 2.332532e-01 0.000000e+00
      vertex 4.495181e-01 2.332569e-01 -5.000000e-01
    endloop
  endfacet
  facet normal 9.659041e-01 -2.589000e-01 -8.622843e-06
    outer loop
      vertex 4.037431e-01 1.874819e-01 -5.000000e-01
      vertex 4.037517e-01 1.874972e-01 0.000000e+00
      vertex 3.870000e-01 1.250000e-01 0.000000e+00
    endloop
  endfacet
  facet normal 7.071068e-01 -7.071068e-01 9.502405e-06
    outer loop
      vertex 4.495181e-01 2.332569e-01 -5.000000e-01
      vertex 4.037517e-01 1.874972e-01 0.000000e+00
      vertex 4.037431e-01 1.874819e-01 -5.000000e-01
    endloop
  endfacet
  facet normal 9.659041e-01 2.589000e-01 -1.437184e-17
    outer loop
      vertex 3.870000e-01 1.250000e-01 -5.000000e-01
      vertex 3.870000e-01 1.250000e-01 0.000000e+00
      vertex 4.037517e-01 6.250281e-02 0.000000e+00
    endloop
  endfacet
  facet normal 9.659214e-01 -2.588357e-01 1.340873e-17
    outer loop
      vertex 4.037431e-01 1.874819e-01 -5.000000e-01
      vertex 3.870000e-01 1.250000e-01 0.000000e+00
      vertex 3.870000e-01 1.250000e-01 -5.000000e-01
    endloop
  endfacet
  facet normal 7.071661e-01 7.070475e-01 9.499579e-06
    outer loop
      vertex 4.037431e-01 6.251809e-02 -5.000000e-01
      vertex 4.037517e-01 6.250281e-02 0.000000e+00
      vertex 4.495000e-01 1.674682e-02 0.000000e+00
    endloop
  endfacet
  facet normal 9.659214e-01 2.588357e-01 -8.625106e-06
    outer loop
      vertex 3.870000e-01 1.250000e-01 -5.000000e-01
      vertex 4.037517e-01 6.250281e-02 0.000000e+00
      vertex 4.037431e-01 6.251809e-02 -5.000000e-01
    endloop
  endfacet
  facet normal 2.587381e-01 9.659475e-01 2.221525e-06
    outer loop
      vertex 4.495181e-01 1.674313e-02 -5.000000e-01
      vertex 4.495000e-01 1.674682e-02 0.000000e+00
      vertex 5.120000e-01 5.616531e-06 0.000000e+00
    endloop
  endfacet
  facet normal 7.071068e-01 7.071068e-01 2.035271e-05
    outer loop
      vertex 4.037431e-01 6.251809e-02 -5.000000e-01
      vertex 4.495000e-01 1.674682e-02 0.000000e+00
      vertex 4.495181e-01 1.674313e-02 -5.000000e-01
    endloop
  endfacet
  facet normal -2.587381e-01 9.659475e-01 -1.085055e-05
    outer loop
      vertex 5.120000e-01 0.000000e+00 -5.000000e-01
      vertex 5.120000e-01 5.616531e-06 0.000000e+00
      vertex 5.745000e-01 1.674682e-02 0.000000e+00
    endloop
  endfacet
  facet normal 2.588357e-01 9.659214e-01 -1.085025e-05
    outer loop
      vertex 4.495181e-01 1.674313e-02 -5.000000e-01
      vertex 5.120000e-01 5.616531e-06 0.000000e+00
      vertex 5.120000e-01 0.000000e+00 -5.000000e-01
    endloop
  endfacet
  facet normal -7.071661e-01 7.070475e-01 2.035529e-05
    outer loop
      vertex 5.744819e-01 1.674313e-02 -5.000000e-01
      vertex 5.745000e-01 1.674682e-02 0.000000e+00
      vertex 6.202483e-01 6.250281e-02 0.000000e+00
    endloop
  endfacet
  facet normal -2.588357e-01 9.659214e-01 2.225249e-06
    outer loop
      vertex 5.120000e-01 0.000000e+00 -5.000000e-01
      vertex 5.745000e-01 1.674682e-02 0.000000e+00
      vertex 5.744819e-01 1.674313e-02 -5.000000e-01
    endloop
  endfacet
  facet normal -7.071068e-01 7.071068e-01 9.502405e-06
    outer loop
      vertex 5.744819e-01 1.674313e-02 -5.000000e-01
      vertex 6.202483e-01 6.250281e-02 0.000000e+00
      vertex 6.202569e-01 6.251809e-02 -5.000000e-01
    endloop
  endfacet
  facet normal 1.000000e+00 -1.040502e-16 0.000000e+00
    outer loop
      vertex -2.500000e-01 -1.082483e-01 -9.375028e-01
      vertex -2.500000e-01 -3.750000e-01 -2.500000e-01
      vertex -2.500000e-01 -3.750000e-01 -1.500000e+00
    endloop
  endfacet
  facet normal 1.000000e+00 0.000000e+00 -7.085080e-17
    outer loop
      vertex -2.500000e-01 6.250000e-02 -1.108253e+00
      vertex -2.500000e-01 -3.750000e-01 -1.500000e+00
      vertex -2.500000e-01 3.750000e-01 -1.500000e+00
    endloop
  endfacet
  facet normal 1.000000e+00 -7.227647e-17 -1.937292e-17
    outer loop
      vertex -2.500000e-01 -1.082483e-01 -1.062497e+00
      vertex -2.500000e-01 -1.250000e-01 -1.000000e+00
      vertex -2.500000e-01 -3.750000e-01 -1.500000e+00
    endloop
  endfacet
  facet normal 1.000000e+00 -2.393125e-16 6.414510e-17
    outer loop
      vertex -2.500000e-01 -1.082483e-01 -9.375028e-01
      vertex -2.500000e-01 -3.750000e-01 -1.500000e+00
      vertex -2.500000e-01 -1.250000e-01 -1.000000e+00
    endloop
  endfacet
  facet normal 1.000000e+00 -3.941539e-17 -3.940878e-17
    outer loop
      vertex -2.500000e-01 -6.250000e-02 -1.108253e+00
      vertex -2.500000e-01 -1.082483e-01 -1.062497e+00
      vertex -2.500000e-01 -3.750000e-01 -1.500000e+00
    endloop
  endfacet
  facet normal 1.000000e+00 -1.563686e-17 -5.837713e-17
    outer loop
      vertex -2.500000e-01 5.551115e-17 -1.124994e+00
      vertex -2.500000e-01 -6.250000e-02 -1.108253e+00
      vertex -2.500000e-01 -3.750000e-01 -1.500000e+00
    endloop
  endfacet
  facet normal 1.000000e+00 2.707836e-17 -1.010917e-16
    outer loop
      vertex -2.500000e-01 6.250000e-02 -1.108253e+00
      vertex -2.500000e-01 5.551115e-17 -1.124994e+00
      vertex -2.500000e-01 -3.750000e-01 -1.500000e+00
    endloop
  endfacet
  facet normal -1.000000e+00 0.000000e+00 0.000000e+00
    outer loop
      vertex 2.500000e-01 -1.082483e-01 -1.062497e+00
      vertex 2.500000e-01 -3.750000e-01 -1.500000e+00
      vertex 2.500000e-01 -3.750000e-01 -2.500000e-01
    endloop
  endfacet
  facet normal -1.000000e+00 0.000000e+00 0.000000e+00
    outer loop
      vertex 2.500000e-01 -6.250000e-02 -1.108253e+00
      vertex 2.500000e-01 3.750000e-01 -1.500000e+00
      vertex 2.500000e-01 -3.750000e-01 -1.500000e+00
    endloop
  endfacet
  facet normal -1.000000e+00 0.000000e+00 0.000000e+00
    outer loop
      vertex 2.500000e-01 -1.082483e-01 -1.062497e+00
      vertex 2.500000e-01 -6.250000e-02 -1.108253e+00
      vertex 2.500000e-01 -3.750000e-01 -1.500000e+00
    endloop
  endfacet
  facet normal 0.000000e+00 0.000000e+00 -1.000000e+00
    outer loop
      vertex -2.500000e-01 3.750000e-01 -2.500000e-01
      vertex 2.500000e-01 -3.750000e-01 -2.500000e-01
      vertex -2.500000e-01 -3.750000e-01 -2.500000e-01
    endloop
  endfacet
  facet normal 0.000000e+00 0.000000e+00 -1.000000e+00
    outer loop
      vertex 2.500000e-01 3.750000e-01 -2.500000e-01
      vertex 2.500000e-01 -3.750000e-01 -2.500000e-01
      vertex -2.500000e-01 3.750000e-01 -2.500000e-01
    endloop
  endfacet
  facet normal -1.000000e+00 0.000000e+00 0.000000e+00
    outer loop
      vertex 2.500000e-01 1.082483e-01 -9.375028e-01
      vertex 2.500000e-01 -3.750000e-01 -2.500000e-01
      vertex 2.500000e-01 3.750000e-01 -2.500000e-01
    endloop
  endfacet
  facet normal -1.000000e+00 0.000000e+00 0.000000e+00
    outer loop
      vertex 2.500000e-01 -1.082483e-01 -9.375028e-01
      vertex 2.500000e-01 -1.250000e-01 -1.000000e+00
      vertex 2.500000e-01 -3.750000e-01 -2.500000e-01
    endloop
  endfacet
  facet normal -1.000000e+00 0.000000e+00 0.000000e+00
    outer loop
      vertex 2.500000e-01 -1.082483e-01 -1.062497e+00
      vertex 2.500000e-01 -3.750000e-01 -2.500000e-01
      vertex 2.500000e-01 -1.250000e-01 -1.000000e+00
    endloop
  endfacet
  facet normal -1.000000e+00 0.000000e+00 0.000000e+00
    outer loop
      vertex 2.500000e-01 -6.250000e-02 -8.917468e-01
      vertex 2.500000e-01 -1.082483e-01 -9.375028e-01
      vertex 2.500000e-01 -3.750000e-01 -2.500000e-01
    endloop
  endfacet
  facet normal -1.000000e+00 0.000000e+00 0.000000e+00
    outer loop
      vertex 2.500000e-01 1.110223e-16 -8.750056e-01
      vertex 2.500000e-01 -6.250000e-02 -8.917468e-01
      vertex 2.500000e-01 -3.750000e-01 -2.500000e-01
    endloop
  endfacet
  facet normal -1.000000e+00 0.000000e+00 0.000000e+00
    outer loop
      vertex 2.500000e-01 6.250000e-02 -8.917468e-01
      vertex 2.500000e-01 1.110223e-16 -8.750056e-01
      vertex 2.500000e-01 -3.750000e-01 -2.500000e-01
    endloop
  endfacet
  facet normal -1.000000e+00 0.000000e+00 0.000000e+00
    outer loop
      vertex 2.500000e-01 1.082483e-01 -9.375028e-01
      vertex 2.500000e-01 6.250000e-02 -8.917468e-01
      vertex 2.500000e-01 -3.750000e-01 -2.500000e-01
    endloop
  endfacet
  facet normal 1.000000e+00 0.000000e+00 4.037158e-17
    outer loop
      vertex -2.500000e-01 -1.082483e-01 -9.375028e-01
      vertex -2.500000e-01 3.750000e-01 -2.500000e-01
      vertex -2.500000e-01 -3.750000e-01 -2.500000e-01
    endloop
  endfacet
  facet normal 1.000000e+00 1.040502e-16 0.000000e+00
    outer loop
      vertex -2.500000e-01 1.082483e-01 -1.062497e+00
      vertex -2.500000e-01 3.750000e-01 -1.500000e+00
      vertex -2.500000e-01 3.750000e-01 -2.500000e-01
    endloop
  endfacet
  facet normal 1.000000e+00 3.941539e-17 -3.940878e-17
    outer loop
      vertex -2.500000e-01 1.082483e-01 -1.062497e+00
      vertex -2.500000e-01 6.250000e-02 -1.108253e+00
      vertex -2.500000e-01 3.750000e-01 -1.500000e+00
    endloop
  endfacet
  facet normal -1.000000e+00 0.000000e+00 0.000000e+00
    outer loop
      vertex 2.500000e-01 1.082483e-01 -9.375028e-01
      vertex 2.500000e-01 3.750000e-01 -2.500000e-01
      vertex 2.500000e-01 3.750000e-01 -1.500000e+00
    endloop
  endfacet
  facet normal -1.000000e+00 0.000000e+00 0.000000e+00
    outer loop
      vertex 2.500000e-01 1.250000e-01 -1.000000e+00
      vertex 2.500000e-01 1.082483e-01 -9.375028e-01
      vertex 2.500000e-01 3.750000e-01 -1.500000e+00
    endloop
  endfacet
  facet normal -1.000000e+00 0.000000e+00 0.000000e+00
    outer loop
      vertex 2.500000e-01 1.082483e-01 -1.062497e+00
      vertex 2.500000e-01 1.250000e-01 -1.000000e+00
      vertex 2.500000e-01 3.750000e-01 -1.500000e+00
    endloop
  endfacet
  facet normal -1.000000e+00 0.000000e+00 0.000000e+00
    outer loop
      vertex 2.500000e-01 6.250000e-02 -1.108253e+00
      vertex 2.500000e-01 1.082483e-01 -1.062497e+00
      vertex 2.500000e-01 3.750000e-01 -1.500000e+00
    endloop
  endfacet
  facet normal -1.000000e+00 0.000000e+00 0.000000e+00
    outer loop
      vertex 2.500000e-01 5.551115e-17 -1.124994e+00
      vertex 2.500000e-01 6.250000e-02 -1.108253e+00
      vertex 2.500000e-01 3.750000e-01 -1.500000e+00
    endloop
  endfacet
  facet normal -1.000000e+00 0.000000e+00 0.000000e+00
    outer loop
      vertex 2.500000e-01 -6.250000e-02 -1.108253e+00
      vertex 2.500000e-01 5.551115e-17 -1.124994e+00
      vertex 2.500000e-01 3.750000e-01 -1.500000e+00
    endloop
  endfacet
  facet normal 1.000000e+00 5.667792e-16 -1.519190e-16
    outer loop
      vertex -2.500000e-01 1.250000e-01 -1.000000e+00
      vertex -2.500000e-01 1.082483e-01 -1.062497e+00
      vertex -2.500000e-01 3.750000e-01 -2.500000e-01
    endloop
  endfacet
  facet normal 1.000000e+00 6.153830e-17 1.649467e-17
    outer loop
      vertex -2.500000e-01 1.082483e-01 -9.375028e-01
      vertex -2.500000e-01 1.250000e-01 -1.000000e+00
      vertex -2.500000e-01 3.750000e-01 -2.500000e-01
    endloop
  endfacet
  facet normal 1.000000e+00 2.908965e-17 2.908477e-17
    outer loop
      vertex -2.500000e-01 6.250000e-02 -8.917468e-01
      vertex -2.500000e-01 1.082483e-01 -9.375028e-01
      vertex -2.500000e-01 3.750000e-01 -2.500000e-01
    endloop
  endfacet
  facet normal 1.000000e+00 1.024821e-17 3.825965e-17
    outer loop
      vertex -2.500000e-01 1.110223e-16 -8.750056e-01
      vertex -2.500000e-01 6.250000e-02 -8.917468e-01
      vertex -2.500000e-01 3.750000e-01 -2.500000e-01
    endloop
  endfacet
  facet normal 1.000000e+00 -1.417305e-17 5.291227e-17
    outer loop
      vertex -2.500000e-01 -6.250000e-02 -8.917468e-01
      vertex -2.500000e-01 1.110223e-16 -8.750056e-01
      vertex -2.500000e-01 3.750000e-01 -2.500000e-01
    endloop
  endfacet
  facet normal 1.000000e+00 -1.359640e-16 1.359412e-16
    outer loop
      vertex -2.500000e-01 -1.082483e-01 -9.375028e-01
      vertex -2.500000e-01 -6.250000e-02 -8.917468e-01
      vertex -2.500000e-01 3.750000e-01 -2.500000e-01
    endloop
  endfacet
  facet normal 0.000000e+00 0.000000e+00 1.000000e+00
    outer loop
      vertex -4.037431e-01 1.874819e-01 -5.000000e-01
      vertex -4.037431e-01 6.251809e-02 -5.000000e-01
      vertex -3.870000e-01 1.250000e-01 -5.000000e-01
    endloop
  endfacet
  facet normal 0.000000e+00 0.000000e+00 1.000000e+00
    outer loop
      vertex -4.495181e-01 2.332569e-01 -5.000000e-01
      vertex -4.495181e-01 1.674313e-02 -5.000000e-01
      vertex -4.037431e-01 6.251809e-02 -5.000000e-01
    endloop
  endfacet
  facet normal 0.000000e+00 0.000000e+00 1.000000e+00
    outer loop
      vertex -4.037431e-01 1.874819e-01 -5.000000e-01
      vertex -4.495181e-01 2.332569e-01 -5.000000e-01
      vertex -4.037431e-01 6.251809e-02 -5.000000e-01
    endloop
  endfacet
  facet normal 0.000000e+00 0.000000e+00 1.000000e+00
    outer loop
      vertex -5.120000e-01 2.500000e-01 -5.000000e-01
      vertex -5.120000e-01 0.000000e+00 -5.000000e-01
      vertex -4.495181e-01 1.674313e-02 -5.000000e-01
    endloop
  endfacet
  facet normal 0.000000e+00 0.000000e+00 1.000000e+00
    outer loop
      vertex -4.495181e-01 2.332569e-01 -5.000000e-01
      vertex -5.120000e-01 2.500000e-01 -5.000000e-01
      vertex -4.495181e-01 1.674313e-02 -5.000000e-01
    endloop
  endfacet
  facet normal 0.000000e+00 0.000000e+00 1.000000e+00
    outer loop
      vertex -5.744819e-01 2.332569e-01 -5.000000e-01
      vertex -5.744819e-01 1.674313e-02 -5.000000e-01
      vertex -5.120000e-01 0.000000e+00 -5.000000e-01
    endloop
  endfacet
  facet normal 0.000000e+00 0.000000e+00 1.000000e+00
    outer loop
      vertex -5.120000e-01 2.500000e-01 -5.000000e-01
      vertex -5.744819e-01 2.332569e-01 -5.000000e-01
      vertex -5.120000e-01 0.000000e+00 -5.000000e-01
    endloop
  endfacet
  facet normal 0.000000e+00 0.000000e+00 1.000000e+00
    outer loop
      vertex -6.202569e-01 1.874819e-01 -5.000000e-01
      vertex -6.202569e-01 6.251809e-02 -5.000000e-01
      vertex -5.744819e-01 1.674313e-02 -5.000000e-01
    endloop
  endfacet
  facet normal 0.000000e+00 0.000000e+00 1.000000e+00
    outer loop
      vertex -5.744819e-01 2.332569e-01 -5.000000e-01
      vertex -6.202569e-01 1.874819e-01 -5.000000e-01
      vertex -5.744819e-01 1.674313e-02 -5.000000e-01
    endloop
  endfacet
  facet normal 0.000000e+00 0.000000e+00 1.000000e+00
    outer loop
      vertex -6.202569e-01 1.874819e-01 -5.000000e-01
      vertex -6.370000e-01 1.250000e-01 -5.000000e-01
      vertex -6.202569e-01 6.251809e-02 -5.000000e-01
    endloop
  endfacet
  facet normal 0.000000e+00 0.000000e+00 1.000000e+00
    outer loop
      vertex 6.202569e-01 1.874819e-01 -5.000000e-01
      vertex 6.202569e-01 6.251809e-02 -5.000000e-01
      vertex 6.370000e-01 1.250000e-01 -5.000000e-01
    endloop
  endfacet
  facet normal 0.000000e+00 0.000000e+00 1.000000e+00
    outer loop
      vertex 5.744819e-01 2.332569e-01 -5.000000e-01
      vertex 5.744819e-01 1.674313e-02 -5.000000e-01
      vertex 6.202569e-01 6.251809e-02 -5.000000e-01
    endloop
  endfacet
  facet normal 0.000000e+00 0.000000e+00 1.000000e+00
    outer loop
      vertex 6.202569e-01 1.874819e-01 -5.000000e-01
      vertex 5.744819e-01 2.332569e-01 -5.000000e-01
      vertex 6.202569e-01 6.251809e-02 -5.000000e-01
    endloop
  endfacet
  facet normal 0.000000e+00 0.000000e+00 1.000000e+00
    outer loop
      vertex 5.120000e-01 2.500000e-01 -5.000000e-01
      vertex 5.120000e-01 0.000000e+00 -5.000000e-01
      vertex 5.744819e-01 1.674313e-02 -5.000000e-01
    endloop
  endfacet
  facet normal 0.000000e+00 0.000000e+00 1.000000e+00
    outer loop
      vertex 5.744819e-01 2.332569e-01 -5.000000e-01
      vertex 5.120000e-01 2.500000e-01 -5.000000e-01
      vertex 5.744819e-01 1.674313e-02 -5.000000e-01
    endloop
  endfacet
  facet normal 0.000000e+00 0.000000e+00 1.000000e+00
    outer loop
      vertex 4.495181e-01 2.332569e-01 -5.000000e-01
      vertex 4.495181e-01 1.674313e-02 -5.000000e-01
      vertex 5.120000e-01 0.000000e+00 -5.000000e-01
    endloop
  endfacet
  facet normal 0.000000e+00 0.000000e+00 1.000000e+00
    outer loop
      vertex 5.120000e-01 2.500000e-01 -5.000000e-01
      vertex 4.495181e-01 2.332569e-01 -5.000000e-01
      vertex 5.120000e-01 0.000000e+00 -5.000000e-01
    endloop
  endfacet
  facet normal 0.000000e+00 0.000000e+00 1.000000e+00
    outer loop
      vertex 4.037431e-01 1.874819e-01 -5.000000e-01
      vertex 4.037431e-01 6.251809e-02 -5.000000e-01
      vertex 4.495181e-01 1.674313e-02 -5.000000e-01
    endloop
  endfacet
  facet normal 0.000000e+00 0.000000e+00 1.000000e+00
    outer loop
      vertex 4.495181e-01 2.332569e-01 -5.000000e-01
      vertex 4.037431e-01 1.874819e-01 -5.000000e-01
      vertex 4.495181e-01 1.674313e-02 -5.000000e-01
    endloop
  endfacet
  facet normal 0.000000e+00 0.000000e+00 1.000000e+00
    outer loop
      vertex 4.037431e-01 1.874819e-01 -5.000000e-01
      vertex 3.870000e-01 1.250000e-01 -5.000000e-01
      vertex 4.037431e-01 6.251809e-02 -5.000000e-01
    endloop
  endfacet
endsolid 3
