solid 7
  facet normal -1.000000e+00 0.000000e+00 0.000000e+00
    outer loop
      vertex 0.000000e+00 -1.025000e+00 -1.530808e-17
      vertex 0.000000e+00 1.031117e+00 3.860136e-02
      vertex 0.000000e+00 1.025000e+00 1.530808e-17
    endloop
  endfacet
  facet normal 0.000000e+00 9.876761e-01 -1.565114e-01
    outer loop
      vertex 2.500000e-01 1.025000e+00 1.530808e-17
      vertex 0.000000e+00 1.025000e+00 1.530808e-17
      vertex 0.000000e+00 1.031117e+00 3.860136e-02
    endloop
  endfacet
  facet normal -1.000000e+00 0.000000e+00 0.000000e+00
    outer loop
      vertex 0.000000e+00 -1.150000e+00 -2.500000e-01
      vertex 0.000000e+00 1.025000e+00 1.530808e-17
      vertex 0.000000e+00 1.031117e+00 -3.860136e-02
    endloop
  endfacet
  facet normal 0.000000e+00 9.876761e-01 1.565114e-01
    outer loop
      vertex 2.500000e-01 1.031117e+00 -3.860136e-02
      vertex 0.000000e+00 1.031117e+00 -3.860136e-02
      vertex 0.000000e+00 1.025000e+00 1.530808e-17
    endloop
  endfacet
  facet normal -1.000000e+00 0.000000e+00 0.000000e+00
    outer loop
      vertex 0.000000e+00 -1.031117e+00 -3.860136e-02
      vertex 0.000000e+00 -1.025000e+00 -1.530808e-17
      vertex 0.000000e+00 1.025000e+00 1.530808e-17
    endloop
  endfacet
  facet normal -1.000000e+00 0.000000e+00 0.000000e+00
    outer loop
      vertex 0.000000e+00 -1.048889e+00 -7.347925e-02
      vertex 0.000000e+00 -1.031117e+00 -3.860136e-02
      vertex 0.000000e+00 1.025000e+00 1.530808e-17
    endloop
  endfacet
  facet normal -1.000000e+00 0.000000e+00 0.000000e+00
    outer loop
      vertex 0.000000e+00 -1.150000e+00 -2.500000e-01
      vertex 0.000000e+00 -1.048889e+00 -7.347925e-02
      vertex 0.000000e+00 1.025000e+00 1.530808e-17
    endloop
  endfacet
  facet normal 0.000000e+00 9.876761e-01 1.565114e-01
    outer loop
      vertex 2.500000e-01 1.031117e+00 -3.860136e-02
      vertex 0.000000e+00 1.025000e+00 1.530808e-17
      vertex 2.500000e-01 1.025000e+00 1.530808e-17
    endloop
  endfacet
  facet normal -1.000000e+00 0.000000e+00 0.000000e+00
    outer loop
      vertex 0.000000e+00 -1.025000e+00 -1.530808e-17
      vertex 0.000000e+00 1.048889e+00 7.347925e-02
      vertex 0.000000e+00 1.031117e+00 3.860136e-02
    endloop
  endfacet
  facet normal 0.000000e+00 8.910012e-01 -4.540010e-01
    outer loop
      vertex 2.500000e-01 1.031117e+00 3.860136e-02
      vertex 0.000000e+00 1.031117e+00 3.860136e-02
      vertex 0.000000e+00 1.048889e+00 7.347925e-02
    endloop
  endfacet
  facet normal 0.000000e+00 9.876761e-01 -1.565114e-01
    outer loop
      vertex 2.500000e-01 1.031117e+00 3.860136e-02
      vertex 2.500000e-01 1.025000e+00 1.530808e-17
      vertex 0.000000e+00 1.031117e+00 3.860136e-02
    endloop
  endfacet
  facet normal -1.000000e+00 0.000000e+00 0.000000e+00
    outer loop
      vertex 0.000000e+00 1.150000e+00 2.500000e-01
      vertex 0.000000e+00 1.076545e+00 1.011385e-01
      vertex 0.000000e+00 1.048889e+00 7.347925e-02
    endloop
  endfacet
  facet normal 0.000000e+00 7.071474e-01 -7.070662e-01
    outer loop
      vertex 2.500000e-01 1.048889e+00 7.347925e-02
      vertex 0.000000e+00 1.048889e+00 7.347925e-02
      vertex 0.000000e+00 1.076545e+00 1.011385e-01
    endloop
  endfacet
  facet normal -1.000000e+00 0.000000e+00 0.000000e+00
    outer loop
      vertex 0.000000e+00 1.150000e+00 2.500000e-01
      vertex 0.000000e+00 1.048889e+00 7.347925e-02
      vertex 0.000000e+00 -1.025000e+00 -1.530808e-17
    endloop
  endfacet
  facet normal 0.000000e+00 8.910012e-01 -4.540010e-01
    outer loop
      vertex 2.500000e-01 1.031117e+00 3.860136e-02
      vertex 0.000000e+00 1.048889e+00 7.347925e-02
      vertex 2.500000e-01 1.048889e+00 7.347925e-02
    endloop
  endfacet
  facet normal -1.000000e+00 0.000000e+00 0.000000e+00
    outer loop
      vertex 0.000000e+00 1.150000e+00 2.500000e-01
      vertex 0.000000e+00 1.111347e+00 1.188694e-01
      vertex 0.000000e+00 1.076545e+00 1.011385e-01
    endloop
  endfacet
  facet normal 0.000000e+00 4.539532e-01 -8.910255e-01
    outer loop
      vertex 2.500000e-01 1.076545e+00 1.011385e-01
      vertex 0.000000e+00 1.076545e+00 1.011385e-01
      vertex 0.000000e+00 1.111347e+00 1.188694e-01
    endloop
  endfacet
  facet normal 0.000000e+00 7.071474e-01 -7.070662e-01
    outer loop
      vertex 2.500000e-01 1.048889e+00 7.347925e-02
      vertex 0.000000e+00 1.076545e+00 1.011385e-01
      vertex 2.500000e-01 1.076545e+00 1.011385e-01
    endloop
  endfacet
  facet normal -1.000000e+00 0.000000e+00 0.000000e+00
    outer loop
      vertex 0.000000e+00 1.150000e+00 2.500000e-01
      vertex 0.000000e+00 1.150000e+00 1.249901e-01
      vertex 0.000000e+00 1.111347e+00 1.188694e-01
    endloop
  endfacet
  facet normal 0.000000e+00 1.563998e-01 -9.876938e-01
    outer loop
      vertex 2.500000e-01 1.111347e+00 1.188694e-01
      vertex 0.000000e+00 1.111347e+00 1.188694e-01
      vertex 0.000000e+00 1.150000e+00 1.249901e-01
    endloop
  endfacet
  facet normal 0.000000e+00 4.539532e-01 -8.910255e-01
    outer loop
      vertex 2.500000e-01 1.076545e+00 1.011385e-01
      vertex 0.000000e+00 1.111347e+00 1.188694e-01
      vertex 2.500000e-01 1.111347e+00 1.188694e-01
    endloop
  endfacet
  facet normal -1.000000e+00 0.000000e+00 0.000000e+00
    outer loop
      vertex 0.000000e+00 1.275017e+00 2.164887e-01
      vertex 0.000000e+00 1.188653e+00 1.188694e-01
      vertex 0.000000e+00 1.150000e+00 1.249901e-01
    endloop
  endfacet
  facet normal 0.000000e+00 -1.563998e-01 -9.876938e-01
    outer loop
      vertex 2.500000e-01 1.150000e+00 1.249901e-01
      vertex 0.000000e+00 1.150000e+00 1.249901e-01
      vertex 0.000000e+00 1.188653e+00 1.188694e-01
    endloop
  endfacet
  facet normal -1.000000e+00 0.000000e+00 0.000000e+00
    outer loop
      vertex 0.000000e+00 1.150000e+00 2.500000e-01
      vertex 0.000000e+00 1.275017e+00 2.164887e-01
      vertex 0.000000e+00 1.150000e+00 1.249901e-01
    endloop
  endfacet
  facet normal 0.000000e+00 1.563998e-01 -9.876938e-01
    outer loop
      vertex 2.500000e-01 1.111347e+00 1.188694e-01
      vertex 0.000000e+00 1.150000e+00 1.249901e-01
      vertex 2.500000e-01 1.150000e+00 1.249901e-01
    endloop
  endfacet
  facet normal -1.000000e+00 0.000000e+00 0.000000e+00
    outer loop
      vertex 0.000000e+00 1.275017e+00 2.164887e-01
      vertex 0.000000e+00 1.223455e+00 1.011385e-01
      vertex 0.000000e+00 1.188653e+00 1.188694e-01
    endloop
  endfacet
  facet normal 0.000000e+00 -4.539532e-01 -8.910255e-01
    outer loop
      vertex 2.500000e-01 1.188653e+00 1.188694e-01
      vertex 0.000000e+00 1.188653e+00 1.188694e-01
      vertex 0.000000e+00 1.223455e+00 1.011385e-01
    endloop
  endfacet
  facet normal 0.000000e+00 -1.563998e-01 -9.876938e-01
    outer loop
      vertex 2.500000e-01 1.150000e+00 1.249901e-01
      vertex 0.000000e+00 1.188653e+00 1.188694e-01
      vertex 2.500000e-01 1.188653e+00 1.188694e-01
    endloop
  endfacet
  facet normal -1.000000e+00 0.000000e+00 0.000000e+00
    outer loop
      vertex 0.000000e+00 1.275017e+00 2.164887e-01
      vertex 0.000000e+00 1.251111e+00 7.347925e-02
      vertex 0.000000e+00 1.223455e+00 1.011385e-01
    endloop
  endfacet
  facet normal 0.000000e+00 -7.071474e-01 -7.070662e-01
    outer loop
      vertex 2.500000e-01 1.223455e+00 1.011385e-01
      vertex 0.000000e+00 1.223455e+00 1.011385e-01
      vertex 0.000000e+00 1.251111e+00 7.347925e-02
    endloop
  endfacet
  facet normal 0.000000e+00 -4.539532e-01 -8.910255e-01
    outer loop
      vertex 2.500000e-01 1.188653e+00 1.188694e-01
      vertex 0.000000e+00 1.223455e+00 1.011385e-01
      vertex 2.500000e-01 1.223455e+00 1.011385e-01
    endloop
  endfacet
  facet normal -1.000000e+00 0.000000e+00 0.000000e+00
    outer loop
      vertex 0.000000e+00 1.275017e+00 2.164887e-01
      vertex 0.000000e+00 1.268883e+00 3.860136e-02
      vertex 0.000000e+00 1.251111e+00 7.347925e-02
    endloop
  endfacet
  facet normal 0.000000e+00 -8.910012e-01 -4.540010e-01
    outer loop
      vertex 2.500000e-01 1.251111e+00 7.347925e-02
      vertex 0.000000e+00 1.251111e+00 7.347925e-02
      vertex 0.000000e+00 1.268883e+00 3.860136e-02
    endloop
  endfacet
  facet normal 0.000000e+00 -7.071474e-01 -7.070662e-01
    outer loop
      vertex 2.500000e-01 1.223455e+00 1.011385e-01
      vertex 0.000000e+00 1.251111e+00 7.347925e-02
      vertex 2.500000e-01 1.251111e+00 7.347925e-02
    endloop
  endfacet
  facet normal -1.000000e+00 0.000000e+00 0.000000e+00
    outer loop
      vertex 0.000000e+00 1.275017e+00 2.164887e-01
      vertex 0.000000e+00 1.275000e+00 -1.530808e-17
      vertex 0.000000e+00 1.268883e+00 3.860136e-02
    endloop
  endfacet
  facet normal 0.000000e+00 -9.876761e-01 -1.565114e-01
    outer loop
      vertex 2.500000e-01 1.268883e+00 3.860136e-02
      vertex 0.000000e+00 1.268883e+00 3.860136e-02
      vertex 0.000000e+00 1.275000e+00 -1.530808e-17
    endloop
  endfacet
  facet normal 0.000000e+00 -8.910012e-01 -4.540010e-01
    outer loop
      vertex 2.500000e-01 1.251111e+00 7.347925e-02
      vertex 0.000000e+00 1.268883e+00 3.860136e-02
      vertex 2.500000e-01 1.268883e+00 3.860136e-02
    endloop
  endfacet
  facet normal -1.000000e+00 0.000000e+00 0.000000e+00
    outer loop
      vertex 0.000000e+00 1.275017e+00 -2.164887e-01
      vertex 0.000000e+00 1.268883e+00 -3.860136e-02
      vertex 0.000000e+00 1.275000e+00 -1.530808e-17
    endloop
  endfacet
  facet normal 0.000000e+00 -9.876761e-01 1.565114e-01
    outer loop
      vertex 2.500000e-01 1.275000e+00 -1.530808e-17
      vertex 0.000000e+00 1.275000e+00 -1.530808e-17
      vertex 0.000000e+00 1.268883e+00 -3.860136e-02
    endloop
  endfacet
  facet normal -1.000000e+00 0.000000e+00 0.000000e+00
    outer loop
      vertex 0.000000e+00 1.275000e+00 -1.530808e-17
      vertex 0.000000e+00 1.275017e+00 2.164887e-01
      vertex 0.000000e+00 1.275017e+00 -5.551115e-17
    endloop
  endfacet
  facet normal 0.000000e+00 -9.876761e-01 -1.565114e-01
    outer loop
      vertex 2.500000e-01 1.268883e+00 3.860136e-02
      vertex 0.000000e+00 1.275000e+00 -1.530808e-17
      vertex 2.500000e-01 1.275000e+00 -1.530808e-17
    endloop
  endfacet
  facet normal -1.000000e+00 0.000000e+00 0.000000e+00
    outer loop
      vertex 0.000000e+00 1.275017e+00 -2.164887e-01
      vertex 0.000000e+00 1.251111e+00 -7.347925e-02
      vertex 0.000000e+00 1.268883e+00 -3.860136e-02
    endloop
  endfacet
  facet normal 0.000000e+00 -8.910012e-01 4.540010e-01
    outer loop
      vertex 2.500000e-01 1.268883e+00 -3.860136e-02
      vertex 0.000000e+00 1.268883e+00 -3.860136e-02
      vertex 0.000000e+00 1.251111e+00 -7.347925e-02
    endloop
  endfacet
  facet normal 0.000000e+00 -9.876761e-01 1.565114e-01
    outer loop
      vertex 2.500000e-01 1.275000e+00 -1.530808e-17
      vertex 0.000000e+00 1.268883e+00 -3.860136e-02
      vertex 2.500000e-01 1.268883e+00 -3.860136e-02
    endloop
  endfacet
  facet normal -1.000000e+00 0.000000e+00 0.000000e+00
    outer loop
      vertex 0.000000e+00 1.150000e+00 -2.500000e-01
      vertex 0.000000e+00 1.223455e+00 -1.011385e-01
      vertex 0.000000e+00 1.251111e+00 -7.347925e-02
    endloop
  endfacet
  facet normal 0.000000e+00 -7.071474e-01 7.070662e-01
    outer loop
      vertex 2.500000e-01 1.251111e+00 -7.347925e-02
      vertex 0.000000e+00 1.251111e+00 -7.347925e-02
      vertex 0.000000e+00 1.223455e+00 -1.011385e-01
    endloop
  endfacet
  facet normal -1.000000e+00 0.000000e+00 0.000000e+00
    outer loop
      vertex 0.000000e+00 1.275017e+00 -2.164887e-01
      vertex 0.000000e+00 1.150000e+00 -2.500000e-01
      vertex 0.000000e+00 1.251111e+00 -7.347925e-02
    endloop
  endfacet
  facet normal 0.000000e+00 -8.910012e-01 4.540010e-01
    outer loop
      vertex 2.500000e-01 1.268883e+00 -3.860136e-02
      vertex 0.000000e+00 1.251111e+00 -7.347925e-02
      vertex 2.500000e-01 1.251111e+00 -7.347925e-02
    endloop
  endfacet
  facet normal -1.000000e+00 0.000000e+00 0.000000e+00
    outer loop
      vertex 0.000000e+00 1.150000e+00 -2.500000e-01
      vertex 0.000000e+00 1.188653e+00 -1.188694e-01
      vertex 0.000000e+00 1.223455e+00 -1.011385e-01
    endloop
  endfacet
  facet normal 0.000000e+00 -4.539532e-01 8.910255e-01
    outer loop
      vertex 2.500000e-01 1.223455e+00 -1.011385e-01
      vertex 0.000000e+00 1.223455e+00 -1.011385e-01
      vertex 0.000000e+00 1.188653e+00 -1.188694e-01
    endloop
  endfacet
  facet normal 0.000000e+00 -7.071474e-01 7.070662e-01
    outer loop
      vertex 2.500000e-01 1.251111e+00 -7.347925e-02
      vertex 0.000000e+00 1.223455e+00 -1.011385e-01
      vertex 2.500000e-01 1.223455e+00 -1.011385e-01
    endloop
  endfacet
  facet normal -1.000000e+00 0.000000e+00 0.000000e+00
    outer loop
      vertex 0.000000e+00 1.150000e+00 -2.500000e-01
      vertex 0.000000e+00 1.150000e+00 -1.249901e-01
      vertex 0.000000e+00 1.188653e+00 -1.188694e-01
    endloop
  endfacet
  facet normal 0.000000e+00 -1.563998e-01 9.876938e-01
    outer loop
      vertex 2.500000e-01 1.188653e+00 -1.188694e-01
      vertex 0.000000e+00 1.188653e+00 -1.188694e-01
      vertex 0.000000e+00 1.150000e+00 -1.249901e-01
    endloop
  endfacet
  facet normal 0.000000e+00 -4.539532e-01 8.910255e-01
    outer loop
      vertex 2.500000e-01 1.223455e+00 -1.011385e-01
      vertex 0.000000e+00 1.188653e+00 -1.188694e-01
      vertex 2.500000e-01 1.188653e+00 -1.188694e-01
    endloop
  endfacet
  facet normal -1.000000e+00 0.000000e+00 0.000000e+00
    outer loop
      vertex 0.000000e+00 -1.150000e+00 -2.500000e-01
      vertex 0.000000e+00 1.111347e+00 -1.188694e-01
      vertex 0.000000e+00 1.150000e+00 -1.249901e-01
    endloop
  endfacet
  facet normal 0.000000e+00 1.563998e-01 9.876938e-01
    outer loop
      vertex 2.500000e-01 1.150000e+00 -1.249901e-01
      vertex 0.000000e+00 1.150000e+00 -1.249901e-01
      vertex 0.000000e+00 1.111347e+00 -1.188694e-01
    endloop
  endfacet
  facet normal -1.000000e+00 0.000000e+00 0.000000e+00
    outer loop
      vertex 0.000000e+00 -1.150000e+00 -2.500000e-01
      vertex 0.000000e+00 1.150000e+00 -1.249901e-01
      vertex 0.000000e+00 1.150000e+00 -2.500000e-01
    endloop
  endfacet
  facet normal 0.000000e+00 -1.563998e-01 9.876938e-01
    outer loop
      vertex 2.500000e-01 1.188653e+00 -1.188694e-01
      vertex 0.000000e+00 1.150000e+00 -1.249901e-01
      vertex 2.500000e-01 1.150000e+00 -1.249901e-01
    endloop
  endfacet
  facet normal -1.000000e+00 0.000000e+00 0.000000e+00
    outer loop
      vertex 0.000000e+00 -1.150000e+00 -2.500000e-01
      vertex 0.000000e+00 1.076545e+00 -1.011385e-01
      vertex 0.000000e+00 1.111347e+00 -1.188694e-01
    endloop
  endfacet
  facet normal 0.000000e+00 4.539532e-01 8.910255e-01
    outer loop
      vertex 2.500000e-01 1.111347e+00 -1.188694e-01
      vertex 0.000000e+00 1.111347e+00 -1.188694e-01
      vertex 0.000000e+00 1.076545e+00 -1.011385e-01
    endloop
  endfacet
  facet normal 0.000000e+00 1.563998e-01 9.876938e-01
    outer loop
      vertex 2.500000e-01 1.150000e+00 -1.249901e-01
      vertex 0.000000e+00 1.111347e+00 -1.188694e-01
      vertex 2.500000e-01 1.111347e+00 -1.188694e-01
    endloop
  endfacet
  facet normal -1.000000e+00 0.000000e+00 0.000000e+00
    outer loop
      vertex 0.000000e+00 -1.150000e+00 -2.500000e-01
      vertex 0.000000e+00 1.048889e+00 -7.347925e-02
      vertex 0.000000e+00 1.076545e+00 -1.011385e-01
    endloop
  endfacet
  facet normal 0.000000e+00 7.071474e-01 7.070662e-01
    outer loop
      vertex 2.500000e-01 1.076545e+00 -1.011385e-01
      vertex 0.000000e+00 1.076545e+00 -1.011385e-01
      vertex 0.000000e+00 1.048889e+00 -7.347925e-02
    endloop
  endfacet
  facet normal 0.000000e+00 4.539532e-01 8.910255e-01
    outer loop
      vertex 2.500000e-01 1.111347e+00 -1.188694e-01
      vertex 0.000000e+00 1.076545e+00 -1.011385e-01
      vertex 2.500000e-01 1.076545e+00 -1.011385e-01
    endloop
  endfacet
  facet normal -1.000000e+00 0.000000e+00 0.000000e+00
    outer loop
      vertex 0.000000e+00 -1.150000e+00 -2.500000e-01
      vertex 0.000000e+00 1.031117e+00 -3.860136e-02
      vertex 0.000000e+00 1.048889e+00 -7.347925e-02
    endloop
  endfacet
  facet normal 0.000000e+00 8.910012e-01 4.540010e-01
    outer loop
      vertex 2.500000e-01 1.048889e+00 -7.347925e-02
      vertex 0.000000e+00 1.048889e+00 -7.347925e-02
      vertex 0.000000e+00 1.031117e+00 -3.860136e-02
    endloop
  endfacet
  facet normal 0.000000e+00 7.071474e-01 7.070662e-01
    outer loop
      vertex 2.500000e-01 1.076545e+00 -1.011385e-01
      vertex 0.000000e+00 1.048889e+00 -7.347925e-02
      vertex 2.500000e-01 1.048889e+00 -7.347925e-02
    endloop
  endfacet
  facet normal 0.000000e+00 8.910012e-01 4.540010e-01
    outer loop
      vertex 2.500000e-01 1.048889e+00 -7.347925e-02
      vertex 0.000000e+00 1.031117e+00 -3.860136e-02
      vertex 2.500000e-01 1.031117e+00 -3.860136e-02
    endloop
  endfacet
  facet normal -1.000000e+00 0.000000e+00 0.000000e+00
    outer loop
      vertex 0.000000e+00 -1.275017e+00 2.164887e-01
      vertex 0.000000e+00 -1.268883e+00 3.860136e-02
      vertex 0.000000e+00 -1.275000e+00 1.530808e-17
    endloop
  endfacet
  facet normal 0.000000e+00 9.876761e-01 -1.565114e-01
    outer loop
      vertex 2.500000e-01 -1.275000e+00 1.530808e-17
      vertex 0.000000e+00 -1.275000e+00 1.530808e-17
      vertex 0.000000e+00 -1.268883e+00 3.860136e-02
    endloop
  endfacet
  facet normal -1.000000e+00 0.000000e+00 0.000000e+00
    outer loop
      vertex 0.000000e+00 -1.275017e+00 -2.164887e-01
      vertex 0.000000e+00 -1.275000e+00 1.530808e-17
      vertex 0.000000e+00 -1.268883e+00 -3.860136e-02
    endloop
  endfacet
  facet normal 0.000000e+00 9.876761e-01 1.565114e-01
    outer loop
      vertex 2.500000e-01 -1.268883e+00 -3.860136e-02
      vertex 0.000000e+00 -1.268883e+00 -3.860136e-02
      vertex 0.000000e+00 -1.275000e+00 1.530808e-17
    endloop
  endfacet
  facet normal -1.000000e+00 0.000000e+00 0.000000e+00
    outer loop
      vertex 0.000000e+00 -1.275000e+00 1.530808e-17
      vertex 0.000000e+00 -1.275017e+00 -2.164887e-01
      vertex 0.000000e+00 -1.275017e+00 0.000000e+00
    endloop
  endfacet
  facet normal 0.000000e+00 9.876761e-01 1.565114e-01
    outer loop
      vertex 2.500000e-01 -1.268883e+00 -3.860136e-02
      vertex 0.000000e+00 -1.275000e+00 1.530808e-17
      vertex 2.500000e-01 -1.275000e+00 1.530808e-17
    endloop
  endfacet
  facet normal -1.000000e+00 0.000000e+00 0.000000e+00
    outer loop
      vertex 0.000000e+00 -1.275017e+00 2.164887e-01
      vertex 0.000000e+00 -1.251111e+00 7.347925e-02
      vertex 0.000000e+00 -1.268883e+00 3.860136e-02
    endloop
  endfacet
  facet normal 0.000000e+00 8.910012e-01 -4.540010e-01
    outer loop
      vertex 2.500000e-01 -1.268883e+00 3.860136e-02
      vertex 0.000000e+00 -1.268883e+00 3.860136e-02
      vertex 0.000000e+00 -1.251111e+00 7.347925e-02
    endloop
  endfacet
  facet normal 0.000000e+00 9.876761e-01 -1.565114e-01
    outer loop
      vertex 2.500000e-01 -1.268883e+00 3.860136e-02
      vertex 2.500000e-01 -1.275000e+00 1.530808e-17
      vertex 0.000000e+00 -1.268883e+00 3.860136e-02
    endloop
  endfacet
  facet normal -1.000000e+00 0.000000e+00 0.000000e+00
    outer loop
      vertex 0.000000e+00 -1.150000e+00 2.500000e-01
      vertex 0.000000e+00 -1.223455e+00 1.011385e-01
      vertex 0.000000e+00 -1.251111e+00 7.347925e-02
    endloop
  endfacet
  facet normal 0.000000e+00 7.071474e-01 -7.070662e-01
    outer loop
      vertex 2.500000e-01 -1.251111e+00 7.347925e-02
      vertex 0.000000e+00 -1.251111e+00 7.347925e-02
      vertex 0.000000e+00 -1.223455e+00 1.011385e-01
    endloop
  endfacet
  facet normal -1.000000e+00 0.000000e+00 0.000000e+00
    outer loop
      vertex 0.000000e+00 -1.275017e+00 2.164887e-01
      vertex 0.000000e+00 -1.150000e+00 2.500000e-01
      vertex 0.000000e+00 -1.251111e+00 7.347925e-02
    endloop
  endfacet
  facet normal 0.000000e+00 8.910012e-01 -4.540010e-01
    outer loop
      vertex 2.500000e-01 -1.268883e+00 3.860136e-02
      vertex 0.000000e+00 -1.251111e+00 7.347925e-02
      vertex 2.500000e-01 -1.251111e+00 7.347925e-02
    endloop
  endfacet
  facet normal -1.000000e+00 0.000000e+00 0.000000e+00
    outer loop
      vertex 0.000000e+00 -1.150000e+00 2.500000e-01
      vertex 0.000000e+00 -1.188653e+00 1.188694e-01
      vertex 0.000000e+00 -1.223455e+00 1.011385e-01
    endloop
  endfacet
  facet normal 0.000000e+00 4.539532e-01 -8.910255e-01
    outer loop
      vertex 2.500000e-01 -1.223455e+00 1.011385e-01
      vertex 0.000000e+00 -1.223455e+00 1.011385e-01
      vertex 0.000000e+00 -1.188653e+00 1.188694e-01
    endloop
  endfacet
  facet normal 0.000000e+00 7.071474e-01 -7.070662e-01
    outer loop
      vertex 2.500000e-01 -1.251111e+00 7.347925e-02
      vertex 0.000000e+00 -1.223455e+00 1.011385e-01
      vertex 2.500000e-01 -1.223455e+00 1.011385e-01
    endloop
  endfacet
  facet normal -1.000000e+00 0.000000e+00 0.000000e+00
    outer loop
      vertex 0.000000e+00 -1.150000e+00 2.500000e-01
      vertex 0.000000e+00 -1.150000e+00 1.249901e-01
      vertex 0.000000e+00 -1.188653e+00 1.188694e-01
    endloop
  endfacet
  facet normal 0.000000e+00 1.563998e-01 -9.876938e-01
    outer loop
      vertex 2.500000e-01 -1.188653e+00 1.188694e-01
      vertex 0.000000e+00 -1.188653e+00 1.188694e-01
      vertex 0.000000e+00 -1.150000e+00 1.249901e-01
    endloop
  endfacet
  facet normal 0.000000e+00 4.539532e-01 -8.910255e-01
    outer loop
      vertex 2.500000e-01 -1.223455e+00 1.011385e-01
      vertex 0.000000e+00 -1.188653e+00 1.188694e-01
      vertex 2.500000e-01 -1.188653e+00 1.188694e-01
    endloop
  endfacet
  facet normal -1.000000e+00 0.000000e+00 0.000000e+00
    outer loop
      vertex 0.000000e+00 1.150000e+00 2.500000e-01
      vertex 0.000000e+00 -1.111347e+00 1.188694e-01
      vertex 0.000000e+00 -1.150000e+00 1.249901e-01
    endloop
  endfacet
  facet normal 0.000000e+00 -1.563998e-01 -9.876938e-01
    outer loop
      vertex 2.500000e-01 -1.150000e+00 1.249901e-01
      vertex 0.000000e+00 -1.150000e+00 1.249901e-01
      vertex 0.000000e+00 -1.111347e+00 1.188694e-01
    endloop
  endfacet
  facet normal -1.000000e+00 0.000000e+00 0.000000e+00
    outer loop
      vertex 0.000000e+00 -1.150000e+00 2.500000e-01
      vertex 0.000000e+00 1.150000e+00 2.500000e-01
      vertex 0.000000e+00 -1.150000e+00 1.249901e-01
    endloop
  endfacet
  facet normal 0.000000e+00 1.563998e-01 -9.876938e-01
    outer loop
      vertex 2.500000e-01 -1.188653e+00 1.188694e-01
      vertex 0.000000e+00 -1.150000e+00 1.249901e-01
      vertex 2.500000e-01 -1.150000e+00 1.249901e-01
    endloop
  endfacet
  facet normal -1.000000e+00 0.000000e+00 0.000000e+00
    outer loop
      vertex 0.000000e+00 1.150000e+00 2.500000e-01
      vertex 0.000000e+00 -1.076545e+00 1.011385e-01
      vertex 0.000000e+00 -1.111347e+00 1.188694e-01
    endloop
  endfacet
  facet normal 0.000000e+00 -4.539532e-01 -8.910255e-01
    outer loop
      vertex 2.500000e-01 -1.111347e+00 1.188694e-01
      vertex 0.000000e+00 -1.111347e+00 1.188694e-01
      vertex 0.000000e+00 -1.076545e+00 1.011385e-01
    endloop
  endfacet
  facet normal 0.000000e+00 -1.563998e-01 -9.876938e-01
    outer loop
      vertex 2.500000e-01 -1.150000e+00 1.249901e-01
      vertex 0.000000e+00 -1.111347e+00 1.188694e-01
      vertex 2.500000e-01 -1.111347e+00 1.188694e-01
    endloop
  endfacet
  facet normal -1.000000e+00 0.000000e+00 0.000000e+00
    outer loop
      vertex 0.000000e+00 1.150000e+00 2.500000e-01
      vertex 0.000000e+00 -1.048889e+00 7.347925e-02
      vertex 0.000000e+00 -1.076545e+00 1.011385e-01
    endloop
  endfacet
  facet normal 0.000000e+00 -7.071474e-01 -7.070662e-01
    outer loop
      vertex 2.500000e-01 -1.076545e+00 1.011385e-01
      vertex 0.000000e+00 -1.076545e+00 1.011385e-01
      vertex 0.000000e+00 -1.048889e+00 7.347925e-02
    endloop
  endfacet
  facet normal 0.000000e+00 -4.539532e-01 -8.910255e-01
    outer loop
      vertex 2.500000e-01 -1.111347e+00 1.188694e-01
      vertex 0.000000e+00 -1.076545e+00 1.011385e-01
      vertex 2.500000e-01 -1.076545e+00 1.011385e-01
    endloop
  endfacet
  facet normal -1.000000e+00 0.000000e+00 0.000000e+00
    outer loop
      vertex 0.000000e+00 1.150000e+00 2.500000e-01
      vertex 0.000000e+00 -1.031117e+00 3.860136e-02
      vertex 0.000000e+00 -1.048889e+00 7.347925e-02
    endloop
  endfacet
  facet normal 0.000000e+00 -8.910012e-01 -4.540010e-01
    outer loop
      vertex 2.500000e-01 -1.048889e+00 7.347925e-02
      vertex 0.000000e+00 -1.048889e+00 7.347925e-02
      vertex 0.000000e+00 -1.031117e+00 3.860136e-02
    endloop
  endfacet
  facet normal 0.000000e+00 -7.071474e-01 -7.070662e-01
    outer loop
      vertex 2.500000e-01 -1.076545e+00 1.011385e-01
      vertex 0.000000e+00 -1.048889e+00 7.347925e-02
      vertex 2.500000e-01 -1.048889e+00 7.347925e-02
    endloop
  endfacet
  facet normal -1.000000e+00 0.000000e+00 0.000000e+00
    outer loop
      vertex 0.000000e+00 1.150000e+00 2.500000e-01
      vertex 0.000000e+00 -1.025000e+00 -1.530808e-17
      vertex 0.000000e+00 -1.031117e+00 3.860136e-02
    endloop
  endfacet
  facet normal 0.000000e+00 -9.876761e-01 -1.565114e-01
    outer loop
      vertex 2.500000e-01 -1.031117e+00 3.860136e-02
      vertex 0.000000e+00 -1.031117e+00 3.860136e-02
      vertex 0.000000e+00 -1.025000e+00 -1.530808e-17
    endloop
  endfacet
  facet normal 0.000000e+00 -8.910012e-01 -4.540010e-01
    outer loop
      vertex 2.500000e-01 -1.048889e+00 7.347925e-02
      vertex 0.000000e+00 -1.031117e+00 3.860136e-02
      vertex 2.500000e-01 -1.031117e+00 3.860136e-02
    endloop
  endfacet
  facet normal 0.000000e+00 -9.876761e-01 1.565114e-01
    outer loop
      vertex 2.500000e-01 -1.025000e+00 -1.530808e-17
      vertex 0.000000e+00 -1.025000e+00 -1.530808e-17
      vertex 0.000000e+00 -1.031117e+00 -3.860136e-02
    endloop
  endfacet
  facet normal 0.000000e+00 -9.876761e-01 -1.565114e-01
    outer loop
      vertex 2.500000e-01 -1.031117e+00 3.860136e-02
      vertex 0.000000e+00 -1.025000e+00 -1.530808e-17
      vertex 2.500000e-01 -1.025000e+00 -1.530808e-17
    endloop
  endfacet
  facet normal 0.000000e+00 -8.910012e-01 4.540010e-01
    outer loop
      vertex 2.500000e-01 -1.031117e+00 -3.860136e-02
      vertex 0.000000e+00 -1.031117e+00 -3.860136e-02
      vertex 0.000000e+00 -1.048889e+00 -7.347925e-02
    endloop
  endfacet
  facet normal 0.000000e+00 -9.876761e-01 1.565114e-01
    outer loop
      vertex 2.500000e-01 -1.025000e+00 -1.530808e-17
      vertex 0.000000e+00 -1.031117e+00 -3.860136e-02
      vertex 2.500000e-01 -1.031117e+00 -3.860136e-02
    endloop
  endfacet
  facet normal -1.000000e+00 0.000000e+00 0.000000e+00
    outer loop
      vertex 0.000000e+00 -1.150000e+00 -2.500000e-01
      vertex 0.000000e+00 -1.076545e+00 -1.011385e-01
      vertex 0.000000e+00 -1.048889e+00 -7.347925e-02
    endloop
  endfacet
  facet normal 0.000000e+00 -7.071474e-01 7.070662e-01
    outer loop
      vertex 2.500000e-01 -1.048889e+00 -7.347925e-02
      vertex 0.000000e+00 -1.048889e+00 -7.347925e-02
      vertex 0.000000e+00 -1.076545e+00 -1.011385e-01
    endloop
  endfacet
  facet normal 0.000000e+00 -8.910012e-01 4.540010e-01
    outer loop
      vertex 2.500000e-01 -1.031117e+00 -3.860136e-02
      vertex 0.000000e+00 -1.048889e+00 -7.347925e-02
      vertex 2.500000e-01 -1.048889e+00 -7.347925e-02
    endloop
  endfacet
  facet normal -1.000000e+00 0.000000e+00 0.000000e+00
    outer loop
      vertex 0.000000e+00 -1.150000e+00 -2.500000e-01
      vertex 0.000000e+00 -1.111347e+00 -1.188694e-01
      vertex 0.000000e+00 -1.076545e+00 -1.011385e-01
    endloop
  endfacet
  facet normal 0.000000e+00 -4.539532e-01 8.910255e-01
    outer loop
      vertex 2.500000e-01 -1.076545e+00 -1.011385e-01
      vertex 0.000000e+00 -1.076545e+00 -1.011385e-01
      vertex 0.000000e+00 -1.111347e+00 -1.188694e-01
    endloop
  endfacet
  facet normal 0.000000e+00 -7.071474e-01 7.070662e-01
    outer loop
      vertex 2.500000e-01 -1.048889e+00 -7.347925e-02
      vertex 0.000000e+00 -1.076545e+00 -1.011385e-01
      vertex 2.500000e-01 -1.076545e+00 -1.011385e-01
    endloop
  endfacet
  facet normal -1.000000e+00 0.000000e+00 0.000000e+00
    outer loop
      vertex 0.000000e+00 -1.150000e+00 -2.500000e-01
      vertex 0.000000e+00 -1.150000e+00 -1.249901e-01
      vertex 0.000000e+00 -1.111347e+00 -1.188694e-01
    endloop
  endfacet
  facet normal 0.000000e+00 -1.563998e-01 9.876938e-01
    outer loop
      vertex 2.500000e-01 -1.111347e+00 -1.188694e-01
      vertex 0.000000e+00 -1.111347e+00 -1.188694e-01
      vertex 0.000000e+00 -1.150000e+00 -1.249901e-01
    endloop
  endfacet
  facet normal 0.000000e+00 -4.539532e-01 8.910255e-01
    outer loop
      vertex 2.500000e-01 -1.076545e+00 -1.011385e-01
      vertex 0.000000e+00 -1.111347e+00 -1.188694e-01
      vertex 2.500000e-01 -1.111347e+00 -1.188694e-01
    endloop
  endfacet
  facet normal -1.000000e+00 0.000000e+00 0.000000e+00
    outer loop
      vertex 0.000000e+00 -1.275017e+00 -2.164887e-01
      vertex 0.000000e+00 -1.188653e+00 -1.188694e-01
      vertex 0.000000e+00 -1.150000e+00 -1.249901e-01
    endloop
  endfacet
  facet normal 0.000000e+00 1.563998e-01 9.876938e-01
    outer loop
      vertex 2.500000e-01 -1.150000e+00 -1.249901e-01
      vertex 0.000000e+00 -1.150000e+00 -1.249901e-01
      vertex 0.000000e+00 -1.188653e+00 -1.188694e-01
    endloop
  endfacet
  facet normal -1.000000e+00 0.000000e+00 0.000000e+00
    outer loop
      vertex 0.000000e+00 -1.150000e+00 -2.500000e-01
      vertex 0.000000e+00 -1.275017e+00 -2.164887e-01
      vertex 0.000000e+00 -1.150000e+00 -1.249901e-01
    endloop
  endfacet
  facet normal 0.000000e+00 -1.563998e-01 9.876938e-01
    outer loop
      vertex 2.500000e-01 -1.111347e+00 -1.188694e-01
      vertex 0.000000e+00 -1.150000e+00 -1.249901e-01
      vertex 2.500000e-01 -1.150000e+00 -1.249901e-01
    endloop
  endfacet
  facet normal -1.000000e+00 0.000000e+00 0.000000e+00
    outer loop
      vertex 0.000000e+00 -1.275017e+00 -2.164887e-01
      vertex 0.000000e+00 -1.223455e+00 -1.011385e-01
      vertex 0.000000e+00 -1.188653e+00 -1.188694e-01
    endloop
  endfacet
  facet normal 0.000000e+00 4.539532e-01 8.910255e-01
    outer loop
      vertex 2.500000e-01 -1.188653e+00 -1.188694e-01
      vertex 0.000000e+00 -1.188653e+00 -1.188694e-01
      vertex 0.000000e+00 -1.223455e+00 -1.011385e-01
    endloop
  endfacet
  facet normal 0.000000e+00 1.563998e-01 9.876938e-01
    outer loop
      vertex 2.500000e-01 -1.150000e+00 -1.249901e-01
      vertex 0.000000e+00 -1.188653e+00 -1.188694e-01
      vertex 2.500000e-01 -1.188653e+00 -1.188694e-01
    endloop
  endfacet
  facet normal -1.000000e+00 0.000000e+00 0.000000e+00
    outer loop
      vertex 0.000000e+00 -1.275017e+00 -2.164887e-01
      vertex 0.000000e+00 -1.251111e+00 -7.347925e-02
      vertex 0.000000e+00 -1.223455e+00 -1.011385e-01
    endloop
  endfacet
  facet normal 0.000000e+00 7.071474e-01 7.070662e-01
    outer loop
      vertex 2.500000e-01 -1.223455e+00 -1.011385e-01
      vertex 0.000000e+00 -1.223455e+00 -1.011385e-01
      vertex 0.000000e+00 -1.251111e+00 -7.347925e-02
    endloop
  endfacet
  facet normal 0.000000e+00 4.539532e-01 8.910255e-01
    outer loop
      vertex 2.500000e-01 -1.188653e+00 -1.188694e-01
      vertex 0.000000e+00 -1.223455e+00 -1.011385e-01
      vertex 2.500000e-01 -1.223455e+00 -1.011385e-01
    endloop
  endfacet
  facet normal -1.000000e+00 0.000000e+00 0.000000e+00
    outer loop
      vertex 0.000000e+00 -1.275017e+00 -2.164887e-01
      vertex 0.000000e+00 -1.268883e+00 -3.860136e-02
      vertex 0.000000e+00 -1.251111e+00 -7.347925e-02
    endloop
  endfacet
  facet normal 0.000000e+00 8.910012e-01 4.540010e-01
    outer loop
      vertex 2.500000e-01 -1.251111e+00 -7.347925e-02
      vertex 0.000000e+00 -1.251111e+00 -7.347925e-02
      vertex 0.000000e+00 -1.268883e+00 -3.860136e-02
    endloop
  endfacet
  facet normal 0.000000e+00 7.071474e-01 7.070662e-01
    outer loop
      vertex 2.500000e-01 -1.223455e+00 -1.011385e-01
      vertex 0.000000e+00 -1.251111e+00 -7.347925e-02
      vertex 2.500000e-01 -1.251111e+00 -7.347925e-02
    endloop
  endfacet
  facet normal 0.000000e+00 8.910012e-01 4.540010e-01
    outer loop
      vertex 2.500000e-01 -1.251111e+00 -7.347925e-02
      vertex 0.000000e+00 -1.268883e+00 -3.860136e-02
      vertex 2.500000e-01 -1.268883e+00 -3.860136e-02
    endloop
  endfacet
  facet normal 0.000000e+00 2.589138e-01 -9.659004e-01
    outer loop
      vertex 2.500000e-01 1.150000e+00 -2.500000e-01
      vertex 0.000000e+00 1.150000e+00 -2.500000e-01
      vertex 0.000000e+00 1.275017e+00 -2.164887e-01
    endloop
  endfacet
  facet normal 0.000000e+00 0.000000e+00 -1.000000e+00
    outer loop
      vertex 2.500000e-01 -1.150000e+00 -2.500000e-01
      vertex 0.000000e+00 -1.150000e+00 -2.500000e-01
      vertex 0.000000e+00 1.150000e+00 -2.500000e-01
    endloop
  endfacet
  facet normal 0.000000e+00 0.000000e+00 -1.000000e+00
    outer loop
      vertex 2.500000e-01 -1.150000e+00 -2.500000e-01
      vertex 0.000000e+00 1.150000e+00 -2.500000e-01
      vertex 2.500000e-01 1.150000e+00 -2.500000e-01
    endloop
  endfacet
  facet normal -1.000000e+00 0.000000e+00 0.000000e+00
    outer loop
      vertex 0.000000e+00 1.366489e+00 1.250169e-01
      vertex 0.000000e+00 1.366489e+00 -1.250169e-01
      vertex 0.000000e+00 1.275017e+00 -2.164887e-01
    endloop
  endfacet
  facet normal 0.000000e+00 7.071068e-01 -7.071068e-01
    outer loop
      vertex 2.500000e-01 1.275017e+00 -2.164887e-01
      vertex 0.000000e+00 1.275017e+00 -2.164887e-01
      vertex 0.000000e+00 1.366489e+00 -1.250169e-01
    endloop
  endfacet
  facet normal -1.000000e+00 0.000000e+00 0.000000e+00
    outer loop
      vertex 0.000000e+00 1.366489e+00 1.250169e-01
      vertex 0.000000e+00 1.275017e+00 -2.164887e-01
      vertex 0.000000e+00 1.275017e+00 -5.551115e-17
    endloop
  endfacet
  facet normal 0.000000e+00 2.589138e-01 -9.659004e-01
    outer loop
      vertex 2.500000e-01 1.275017e+00 -2.164887e-01
      vertex 2.500000e-01 1.150000e+00 -2.500000e-01
      vertex 0.000000e+00 1.275017e+00 -2.164887e-01
    endloop
  endfacet
  facet normal -1.000000e+00 0.000000e+00 0.000000e+00
    outer loop
      vertex 0.000000e+00 1.366489e+00 1.250169e-01
      vertex 0.000000e+00 1.400000e+00 -3.061617e-17
      vertex 0.000000e+00 1.366489e+00 -1.250169e-01
    endloop
  endfacet
  facet normal 0.000000e+00 9.659004e-01 -2.589138e-01
    outer loop
      vertex 2.500000e-01 1.366489e+00 -1.250169e-01
      vertex 0.000000e+00 1.366489e+00 -1.250169e-01
      vertex 0.000000e+00 1.400000e+00 -3.061617e-17
    endloop
  endfacet
  facet normal 0.000000e+00 7.071068e-01 -7.071068e-01
    outer loop
      vertex 2.500000e-01 1.275017e+00 -2.164887e-01
      vertex 0.000000e+00 1.366489e+00 -1.250169e-01
      vertex 2.500000e-01 1.366489e+00 -1.250169e-01
    endloop
  endfacet
  facet normal 0.000000e+00 9.659004e-01 2.589138e-01
    outer loop
      vertex 2.500000e-01 1.400000e+00 -3.061617e-17
      vertex 0.000000e+00 1.400000e+00 -3.061617e-17
      vertex 0.000000e+00 1.366489e+00 1.250169e-01
    endloop
  endfacet
  facet normal 0.000000e+00 9.659004e-01 -2.589138e-01
    outer loop
      vertex 2.500000e-01 1.366489e+00 -1.250169e-01
      vertex 0.000000e+00 1.400000e+00 -3.061617e-17
      vertex 2.500000e-01 1.400000e+00 -3.061617e-17
    endloop
  endfacet
  facet normal 0.000000e+00 7.071068e-01 7.071068e-01
    outer loop
      vertex 2.500000e-01 1.366489e+00 1.250169e-01
      vertex 0.000000e+00 1.366489e+00 1.250169e-01
      vertex 0.000000e+00 1.275017e+00 2.164887e-01
    endloop
  endfacet
  facet normal 0.000000e+00 9.659004e-01 2.589138e-01
    outer loop
      vertex 2.500000e-01 1.400000e+00 -3.061617e-17
      vertex 0.000000e+00 1.366489e+00 1.250169e-01
      vertex 2.500000e-01 1.366489e+00 1.250169e-01
    endloop
  endfacet
  facet normal 0.000000e+00 2.589138e-01 9.659004e-01
    outer loop
      vertex 2.500000e-01 1.275017e+00 2.164887e-01
      vertex 0.000000e+00 1.275017e+00 2.164887e-01
      vertex 0.000000e+00 1.150000e+00 2.500000e-01
    endloop
  endfacet
  facet normal 0.000000e+00 7.071068e-01 7.071068e-01
    outer loop
      vertex 2.500000e-01 1.366489e+00 1.250169e-01
      vertex 0.000000e+00 1.275017e+00 2.164887e-01
      vertex 2.500000e-01 1.275017e+00 2.164887e-01
    endloop
  endfacet
  facet normal 0.000000e+00 0.000000e+00 1.000000e+00
    outer loop
      vertex 2.500000e-01 1.150000e+00 2.500000e-01
      vertex 0.000000e+00 1.150000e+00 2.500000e-01
      vertex 0.000000e+00 -1.150000e+00 2.500000e-01
    endloop
  endfacet
  facet normal 0.000000e+00 2.589138e-01 9.659004e-01
    outer loop
      vertex 2.500000e-01 1.275017e+00 2.164887e-01
      vertex 0.000000e+00 1.150000e+00 2.500000e-01
      vertex 2.500000e-01 1.150000e+00 2.500000e-01
    endloop
  endfacet
  facet normal 0.000000e+00 -2.589138e-01 9.659004e-01
    outer loop
      vertex 2.500000e-01 -1.150000e+00 2.500000e-01
      vertex 0.000000e+00 -1.150000e+00 2.500000e-01
      vertex 0.000000e+00 -1.275017e+00 2.164887e-01
    endloop
  endfacet
  facet normal 0.000000e+00 0.000000e+00 1.000000e+00
    outer loop
      vertex 2.500000e-01 1.150000e+00 2.500000e-01
      vertex 0.000000e+00 -1.150000e+00 2.500000e-01
      vertex 2.500000e-01 -1.150000e+00 2.500000e-01
    endloop
  endfacet
  facet normal -1.000000e+00 0.000000e+00 0.000000e+00
    outer loop
      vertex 0.000000e+00 -1.366489e+00 -1.250169e-01
      vertex 0.000000e+00 -1.366489e+00 1.250169e-01
      vertex 0.000000e+00 -1.275017e+00 2.164887e-01
    endloop
  endfacet
  facet normal 0.000000e+00 -7.071068e-01 7.071068e-01
    outer loop
      vertex 2.500000e-01 -1.275017e+00 2.164887e-01
      vertex 0.000000e+00 -1.275017e+00 2.164887e-01
      vertex 0.000000e+00 -1.366489e+00 1.250169e-01
    endloop
  endfacet
  facet normal -1.000000e+00 0.000000e+00 0.000000e+00
    outer loop
      vertex 0.000000e+00 -1.366489e+00 -1.250169e-01
      vertex 0.000000e+00 -1.275017e+00 2.164887e-01
      vertex 0.000000e+00 -1.275017e+00 0.000000e+00
    endloop
  endfacet
  facet normal 0.000000e+00 -2.589138e-01 9.659004e-01
    outer loop
      vertex 2.500000e-01 -1.150000e+00 2.500000e-01
      vertex 0.000000e+00 -1.275017e+00 2.164887e-01
      vertex 2.500000e-01 -1.275017e+00 2.164887e-01
    endloop
  endfacet
  facet normal -1.000000e+00 0.000000e+00 0.000000e+00
    outer loop
      vertex 0.000000e+00 -1.366489e+00 -1.250169e-01
      vertex 0.000000e+00 -1.400000e+00 6.123234e-17
      vertex 0.000000e+00 -1.366489e+00 1.250169e-01
    endloop
  endfacet
  facet normal 0.000000e+00 -9.659004e-01 2.589138e-01
    outer loop
      vertex 2.500000e-01 -1.366489e+00 1.250169e-01
      vertex 0.000000e+00 -1.366489e+00 1.250169e-01
      vertex 0.000000e+00 -1.400000e+00 6.123234e-17
    endloop
  endfacet
  facet normal 0.000000e+00 -7.071068e-01 7.071068e-01
    outer loop
      vertex 2.500000e-01 -1.275017e+00 2.164887e-01
      vertex 0.000000e+00 -1.366489e+00 1.250169e-01
      vertex 2.500000e-01 -1.366489e+00 1.250169e-01
    endloop
  endfacet
  facet normal 0.000000e+00 -9.659004e-01 -2.589138e-01
    outer loop
      vertex 2.500000e-01 -1.400000e+00 6.123234e-17
      vertex 0.000000e+00 -1.400000e+00 6.123234e-17
      vertex 0.000000e+00 -1.366489e+00 -1.250169e-01
    endloop
  endfacet
  facet normal 0.000000e+00 -9.659004e-01 2.589138e-01
    outer loop
      vertex 2.500000e-01 -1.366489e+00 1.250169e-01
      vertex 0.000000e+00 -1.400000e+00 6.123234e-17
      vertex 2.500000e-01 -1.400000e+00 6.123234e-17
    endloop
  endfacet
  facet normal 0.000000e+00 -7.071068e-01 -7.071068e-01
    outer loop
      vertex 2.500000e-01 -1.366489e+00 -1.250169e-01
      vertex 0.000000e+00 -1.366489e+00 -1.250169e-01
      vertex 0.000000e+00 -1.275017e+00 -2.164887e-01
    endloop
  endfacet
  facet normal 0.000000e+00 -9.659004e-01 -2.589138e-01
    outer loop
      vertex 2.500000e-01 -1.400000e+00 6.123234e-17
      vertex 0.000000e+00 -1.366489e+00 -1.250169e-01
      vertex 2.500000e-01 -1.366489e+00 -1.250169e-01
    endloop
  endfacet
  facet normal 0.000000e+00 -2.589138e-01 -9.659004e-01
    outer loop
      vertex 2.500000e-01 -1.275017e+00 -2.164887e-01
      vertex 0.000000e+00 -1.275017e+00 -2.164887e-01
      vertex 0.000000e+00 -1.150000e+00 -2.500000e-01
    endloop
  endfacet
  facet normal 0.000000e+00 -7.071068e-01 -7.071068e-01
    outer loop
      vertex 2.500000e-01 -1.366489e+00 -1.250169e-01
      vertex 0.000000e+00 -1.275017e+00 -2.164887e-01
      vertex 2.500000e-01 -1.275017e+00 -2.164887e-01
    endloop
  endfacet
  facet normal 0.000000e+00 -2.589138e-01 -9.659004e-01
    outer loop
      vertex 2.500000e-01 -1.275017e+00 -2.164887e-01
      vertex 0.000000e+00 -1.150000e+00 -2.500000e-01
      vertex 2.500000e-01 -1.150000e+00 -2.500000e-01
    endloop
  endfacet
  facet normal 1.000000e+00 0.000000e+00 0.000000e+00
    outer loop
      vertex 2.500000e-01 -1.025000e+00 -1.530808e-17
      vertex 2.500000e-01 1.031117e+00 -3.860136e-02
      vertex 2.500000e-01 1.025000e+00 1.530808e-17
    endloop
  endfacet
  facet normal 1.000000e+00 0.000000e+00 0.000000e+00
    outer loop
      vertex 2.500000e-01 -1.150000e+00 2.500000e-01
      vertex 2.500000e-01 1.025000e+00 1.530808e-17
      vertex 2.500000e-01 1.031117e+00 3.860136e-02
    endloop
  endfacet
  facet normal 1.000000e+00 0.000000e+00 0.000000e+00
    outer loop
      vertex 2.500000e-01 -1.031117e+00 3.860136e-02
      vertex 2.500000e-01 -1.025000e+00 -1.530808e-17
      vertex 2.500000e-01 1.025000e+00 1.530808e-17
    endloop
  endfacet
  facet normal 1.000000e+00 0.000000e+00 0.000000e+00
    outer loop
      vertex 2.500000e-01 -1.048889e+00 7.347925e-02
      vertex 2.500000e-01 -1.031117e+00 3.860136e-02
      vertex 2.500000e-01 1.025000e+00 1.530808e-17
    endloop
  endfacet
  facet normal 1.000000e+00 0.000000e+00 0.000000e+00
    outer loop
      vertex 2.500000e-01 -1.150000e+00 2.500000e-01
      vertex 2.500000e-01 -1.048889e+00 7.347925e-02
      vertex 2.500000e-01 1.025000e+00 1.530808e-17
    endloop
  endfacet
  facet normal 1.000000e+00 0.000000e+00 0.000000e+00
    outer loop
      vertex 2.500000e-01 -1.025000e+00 -1.530808e-17
      vertex 2.500000e-01 1.048889e+00 -7.347925e-02
      vertex 2.500000e-01 1.031117e+00 -3.860136e-02
    endloop
  endfacet
  facet normal 1.000000e+00 0.000000e+00 0.000000e+00
    outer loop
      vertex 2.500000e-01 1.150000e+00 -2.500000e-01
      vertex 2.500000e-01 1.076545e+00 -1.011385e-01
      vertex 2.500000e-01 1.048889e+00 -7.347925e-02
    endloop
  endfacet
  facet normal 1.000000e+00 0.000000e+00 0.000000e+00
    outer loop
      vertex 2.500000e-01 1.150000e+00 -2.500000e-01
      vertex 2.500000e-01 1.048889e+00 -7.347925e-02
      vertex 2.500000e-01 -1.025000e+00 -1.530808e-17
    endloop
  endfacet
  facet normal 1.000000e+00 0.000000e+00 0.000000e+00
    outer loop
      vertex 2.500000e-01 1.150000e+00 -2.500000e-01
      vertex 2.500000e-01 1.111347e+00 -1.188694e-01
      vertex 2.500000e-01 1.076545e+00 -1.011385e-01
    endloop
  endfacet
  facet normal 1.000000e+00 0.000000e+00 0.000000e+00
    outer loop
      vertex 2.500000e-01 1.150000e+00 -2.500000e-01
      vertex 2.500000e-01 1.150000e+00 -1.249901e-01
      vertex 2.500000e-01 1.111347e+00 -1.188694e-01
    endloop
  endfacet
  facet normal 1.000000e+00 0.000000e+00 0.000000e+00
    outer loop
      vertex 2.500000e-01 1.275017e+00 -2.164887e-01
      vertex 2.500000e-01 1.188653e+00 -1.188694e-01
      vertex 2.500000e-01 1.150000e+00 -1.249901e-01
    endloop
  endfacet
  facet normal 1.000000e+00 0.000000e+00 0.000000e+00
    outer loop
      vertex 2.500000e-01 1.275017e+00 -2.164887e-01
      vertex 2.500000e-01 1.150000e+00 -1.249901e-01
      vertex 2.500000e-01 1.150000e+00 -2.500000e-01
    endloop
  endfacet
  facet normal 1.000000e+00 0.000000e+00 0.000000e+00
    outer loop
      vertex 2.500000e-01 1.275017e+00 -2.164887e-01
      vertex 2.500000e-01 1.223455e+00 -1.011385e-01
      vertex 2.500000e-01 1.188653e+00 -1.188694e-01
    endloop
  endfacet
  facet normal 1.000000e+00 0.000000e+00 0.000000e+00
    outer loop
      vertex 2.500000e-01 1.275017e+00 -2.164887e-01
      vertex 2.500000e-01 1.251111e+00 -7.347925e-02
      vertex 2.500000e-01 1.223455e+00 -1.011385e-01
    endloop
  endfacet
  facet normal 1.000000e+00 0.000000e+00 0.000000e+00
    outer loop
      vertex 2.500000e-01 1.275017e+00 -2.164887e-01
      vertex 2.500000e-01 1.268883e+00 -3.860136e-02
      vertex 2.500000e-01 1.251111e+00 -7.347925e-02
    endloop
  endfacet
  facet normal 1.000000e+00 0.000000e+00 0.000000e+00
    outer loop
      vertex 2.500000e-01 1.275017e+00 -2.164887e-01
      vertex 2.500000e-01 1.275000e+00 -1.530808e-17
      vertex 2.500000e-01 1.268883e+00 -3.860136e-02
    endloop
  endfacet
  facet normal 1.000000e+00 0.000000e+00 0.000000e+00
    outer loop
      vertex 2.500000e-01 1.275017e+00 2.164887e-01
      vertex 2.500000e-01 1.268883e+00 3.860136e-02
      vertex 2.500000e-01 1.275000e+00 -1.530808e-17
    endloop
  endfacet
  facet normal 1.000000e+00 0.000000e+00 0.000000e+00
    outer loop
      vertex 2.500000e-01 1.275000e+00 -1.530808e-17
      vertex 2.500000e-01 1.275017e+00 -2.164887e-01
      vertex 2.500000e-01 1.275017e+00 0.000000e+00
    endloop
  endfacet
  facet normal 1.000000e+00 0.000000e+00 0.000000e+00
    outer loop
      vertex 2.500000e-01 1.275017e+00 2.164887e-01
      vertex 2.500000e-01 1.251111e+00 7.347925e-02
      vertex 2.500000e-01 1.268883e+00 3.860136e-02
    endloop
  endfacet
  facet normal 1.000000e+00 0.000000e+00 0.000000e+00
    outer loop
      vertex 2.500000e-01 1.150000e+00 2.500000e-01
      vertex 2.500000e-01 1.223455e+00 1.011385e-01
      vertex 2.500000e-01 1.251111e+00 7.347925e-02
    endloop
  endfacet
  facet normal 1.000000e+00 0.000000e+00 0.000000e+00
    outer loop
      vertex 2.500000e-01 1.275017e+00 2.164887e-01
      vertex 2.500000e-01 1.150000e+00 2.500000e-01
      vertex 2.500000e-01 1.251111e+00 7.347925e-02
    endloop
  endfacet
  facet normal 1.000000e+00 0.000000e+00 0.000000e+00
    outer loop
      vertex 2.500000e-01 1.150000e+00 2.500000e-01
      vertex 2.500000e-01 1.188653e+00 1.188694e-01
      vertex 2.500000e-01 1.223455e+00 1.011385e-01
    endloop
  endfacet
  facet normal 1.000000e+00 0.000000e+00 0.000000e+00
    outer loop
      vertex 2.500000e-01 1.150000e+00 2.500000e-01
      vertex 2.500000e-01 1.150000e+00 1.249901e-01
      vertex 2.500000e-01 1.188653e+00 1.188694e-01
    endloop
  endfacet
  facet normal 1.000000e+00 0.000000e+00 0.000000e+00
    outer loop
      vertex 2.500000e-01 -1.150000e+00 2.500000e-01
      vertex 2.500000e-01 1.111347e+00 1.188694e-01
      vertex 2.500000e-01 1.150000e+00 1.249901e-01
    endloop
  endfacet
  facet normal 1.000000e+00 0.000000e+00 0.000000e+00
    outer loop
      vertex 2.500000e-01 1.150000e+00 2.500000e-01
      vertex 2.500000e-01 -1.150000e+00 2.500000e-01
      vertex 2.500000e-01 1.150000e+00 1.249901e-01
    endloop
  endfacet
  facet normal 1.000000e+00 0.000000e+00 0.000000e+00
    outer loop
      vertex 2.500000e-01 -1.150000e+00 2.500000e-01
      vertex 2.500000e-01 1.076545e+00 1.011385e-01
      vertex 2.500000e-01 1.111347e+00 1.188694e-01
    endloop
  endfacet
  facet normal 1.000000e+00 0.000000e+00 0.000000e+00
    outer loop
      vertex 2.500000e-01 -1.150000e+00 2.500000e-01
      vertex 2.500000e-01 1.048889e+00 7.347925e-02
      vertex 2.500000e-01 1.076545e+00 1.011385e-01
    endloop
  endfacet
  facet normal 1.000000e+00 0.000000e+00 0.000000e+00
    outer loop
      vertex 2.500000e-01 -1.150000e+00 2.500000e-01
      vertex 2.500000e-01 1.031117e+00 3.860136e-02
      vertex 2.500000e-01 1.048889e+00 7.347925e-02
    endloop
  endfacet
  facet normal 1.000000e+00 0.000000e+00 0.000000e+00
    outer loop
      vertex 2.500000e-01 -1.275017e+00 -2.164887e-01
      vertex 2.500000e-01 -1.268883e+00 -3.860136e-02
      vertex 2.500000e-01 -1.275000e+00 1.530808e-17
    endloop
  endfacet
  facet normal 1.000000e+00 0.000000e+00 0.000000e+00
    outer loop
      vertex 2.500000e-01 -1.275017e+00 2.164887e-01
      vertex 2.500000e-01 -1.275000e+00 1.530808e-17
      vertex 2.500000e-01 -1.268883e+00 3.860136e-02
    endloop
  endfacet
  facet normal 1.000000e+00 0.000000e+00 0.000000e+00
    outer loop
      vertex 2.500000e-01 -1.275000e+00 1.530808e-17
      vertex 2.500000e-01 -1.275017e+00 2.164887e-01
      vertex 2.500000e-01 -1.275017e+00 0.000000e+00
    endloop
  endfacet
  facet normal 1.000000e+00 0.000000e+00 0.000000e+00
    outer loop
      vertex 2.500000e-01 -1.275017e+00 -2.164887e-01
      vertex 2.500000e-01 -1.251111e+00 -7.347925e-02
      vertex 2.500000e-01 -1.268883e+00 -3.860136e-02
    endloop
  endfacet
  facet normal 1.000000e+00 0.000000e+00 0.000000e+00
    outer loop
      vertex 2.500000e-01 -1.150000e+00 -2.500000e-01
      vertex 2.500000e-01 -1.223455e+00 -1.011385e-01
      vertex 2.500000e-01 -1.251111e+00 -7.347925e-02
    endloop
  endfacet
  facet normal 1.000000e+00 0.000000e+00 0.000000e+00
    outer loop
      vertex 2.500000e-01 -1.275017e+00 -2.164887e-01
      vertex 2.500000e-01 -1.150000e+00 -2.500000e-01
      vertex 2.500000e-01 -1.251111e+00 -7.347925e-02
    endloop
  endfacet
  facet normal 1.000000e+00 0.000000e+00 0.000000e+00
    outer loop
      vertex 2.500000e-01 -1.150000e+00 -2.500000e-01
      vertex 2.500000e-01 -1.188653e+00 -1.188694e-01
      vertex 2.500000e-01 -1.223455e+00 -1.011385e-01
    endloop
  endfacet
  facet normal 1.000000e+00 0.000000e+00 0.000000e+00
    outer loop
      vertex 2.500000e-01 -1.150000e+00 -2.500000e-01
      vertex 2.500000e-01 -1.150000e+00 -1.249901e-01
      vertex 2.500000e-01 -1.188653e+00 -1.188694e-01
    endloop
  endfacet
  facet normal 1.000000e+00 0.000000e+00 0.000000e+00
    outer loop
      vertex 2.500000e-01 1.150000e+00 -2.500000e-01
      vertex 2.500000e-01 -1.111347e+00 -1.188694e-01
      vertex 2.500000e-01 -1.150000e+00 -1.249901e-01
    endloop
  endfacet
  facet normal 1.000000e+00 0.000000e+00 0.000000e+00
    outer loop
      vertex 2.500000e-01 -1.150000e+00 -2.500000e-01
      vertex 2.500000e-01 1.150000e+00 -2.500000e-01
      vertex 2.500000e-01 -1.150000e+00 -1.249901e-01
    endloop
  endfacet
  facet normal 1.000000e+00 0.000000e+00 0.000000e+00
    outer loop
      vertex 2.500000e-01 1.150000e+00 -2.500000e-01
      vertex 2.500000e-01 -1.076545e+00 -1.011385e-01
      vertex 2.500000e-01 -1.111347e+00 -1.188694e-01
    endloop
  endfacet
  facet normal 1.000000e+00 0.000000e+00 0.000000e+00
    outer loop
      vertex 2.500000e-01 1.150000e+00 -2.500000e-01
      vertex 2.500000e-01 -1.048889e+00 -7.347925e-02
      vertex 2.500000e-01 -1.076545e+00 -1.011385e-01
    endloop
  endfacet
  facet normal 1.000000e+00 0.000000e+00 0.000000e+00
    outer loop
      vertex 2.500000e-01 1.150000e+00 -2.500000e-01
      vertex 2.500000e-01 -1.031117e+00 -3.860136e-02
      vertex 2.500000e-01 -1.048889e+00 -7.347925e-02
    endloop
  endfacet
  facet normal 1.000000e+00 0.000000e+00 0.000000e+00
    outer loop
      vertex 2.500000e-01 1.150000e+00 -2.500000e-01
      vertex 2.500000e-01 -1.025000e+00 -1.530808e-17
      vertex 2.500000e-01 -1.031117e+00 -3.860136e-02
    endloop
  endfacet
  facet normal 1.000000e+00 0.000000e+00 0.000000e+00
    outer loop
      vertex 2.500000e-01 -1.150000e+00 2.500000e-01
      vertex 2.500000e-01 -1.076545e+00 1.011385e-01
      vertex 2.500000e-01 -1.048889e+00 7.347925e-02
    endloop
  endfacet
  facet normal 1.000000e+00 0.000000e+00 0.000000e+00
    outer loop
      vertex 2.500000e-01 -1.150000e+00 2.500000e-01
      vertex 2.500000e-01 -1.111347e+00 1.188694e-01
      vertex 2.500000e-01 -1.076545e+00 1.011385e-01
    endloop
  endfacet
  facet normal 1.000000e+00 0.000000e+00 0.000000e+00
    outer loop
      vertex 2.500000e-01 -1.150000e+00 2.500000e-01
      vertex 2.500000e-01 -1.150000e+00 1.249901e-01
      vertex 2.500000e-01 -1.111347e+00 1.188694e-01
    endloop
  endfacet
  facet normal 1.000000e+00 0.000000e+00 0.000000e+00
    outer loop
      vertex 2.500000e-01 -1.275017e+00 2.164887e-01
      vertex 2.500000e-01 -1.188653e+00 1.188694e-01
      vertex 2.500000e-01 -1.150000e+00 1.249901e-01
    endloop
  endfacet
  facet normal 1.000000e+00 0.000000e+00 0.000000e+00
    outer loop
      vertex 2.500000e-01 -1.150000e+00 2.500000e-01
      vertex 2.500000e-01 -1.275017e+00 2.164887e-01
      vertex 2.500000e-01 -1.150000e+00 1.249901e-01
    endloop
  endfacet
  facet normal 1.000000e+00 0.000000e+00 0.000000e+00
    outer loop
      vertex 2.500000e-01 -1.275017e+00 2.164887e-01
      vertex 2.500000e-01 -1.223455e+00 1.011385e-01
      vertex 2.500000e-01 -1.188653e+00 1.188694e-01
    endloop
  endfacet
  facet normal 1.000000e+00 0.000000e+00 0.000000e+00
    outer loop
      vertex 2.500000e-01 -1.275017e+00 2.164887e-01
      vertex 2.500000e-01 -1.251111e+00 7.347925e-02
      vertex 2.500000e-01 -1.223455e+00 1.011385e-01
    endloop
  endfacet
  facet normal 1.000000e+00 0.000000e+00 0.000000e+00
    outer loop
      vertex 2.500000e-01 -1.275017e+00 2.164887e-01
      vertex 2.500000e-01 -1.268883e+00 3.860136e-02
      vertex 2.500000e-01 -1.251111e+00 7.347925e-02
    endloop
  endfacet
  facet normal 1.000000e+00 0.000000e+00 0.000000e+00
    outer loop
      vertex 2.500000e-01 -1.366489e+00 1.250169e-01
      vertex 2.500000e-01 -1.366489e+00 -1.250169e-01
      vertex 2.500000e-01 -1.275017e+00 -2.164887e-01
    endloop
  endfacet
  facet normal 1.000000e+00 0.000000e+00 0.000000e+00
    outer loop
      vertex 2.500000e-01 -1.366489e+00 1.250169e-01
      vertex 2.500000e-01 -1.275017e+00 -2.164887e-01
      vertex 2.500000e-01 -1.275017e+00 0.000000e+00
    endloop
  endfacet
  facet normal 1.000000e+00 0.000000e+00 0.000000e+00
    outer loop
      vertex 2.500000e-01 -1.366489e+00 1.250169e-01
      vertex 2.500000e-01 -1.400000e+00 6.123234e-17
      vertex 2.500000e-01 -1.366489e+00 -1.250169e-01
    endloop
  endfacet
  facet normal 1.000000e+00 0.000000e+00 0.000000e+00
    outer loop
      vertex 2.500000e-01 1.366489e+00 -1.250169e-01
      vertex 2.500000e-01 1.366489e+00 1.250169e-01
      vertex 2.500000e-01 1.275017e+00 2.164887e-01
    endloop
  endfacet
  facet normal 1.000000e+00 0.000000e+00 0.000000e+00
    outer loop
      vertex 2.500000e-01 1.366489e+00 -1.250169e-01
      vertex 2.500000e-01 1.275017e+00 2.164887e-01
      vertex 2.500000e-01 1.275017e+00 0.000000e+00
    endloop
  endfacet
  facet normal 1.000000e+00 0.000000e+00 0.000000e+00
    outer loop
      vertex 2.500000e-01 1.366489e+00 -1.250169e-01
      vertex 2.500000e-01 1.400000e+00 -3.061617e-17
      vertex 2.500000e-01 1.366489e+00 1.250169e-01
    endloop
  endfacet
  facet normal -1.000000e+00 0.000000e+00 0.000000e+00
    outer loop
      vertex 0.000000e+00 1.275017e+00 -5.551115e-17
      vertex 0.000000e+00 1.275017e+00 2.164887e-01
      vertex 0.000000e+00 1.366489e+00 1.250169e-01
    endloop
  endfacet
  facet normal -1.000000e+00 0.000000e+00 0.000000e+00
    outer loop
      vertex 0.000000e+00 1.275017e+00 -5.551115e-17
      vertex 0.000000e+00 1.275017e+00 -2.164887e-01
      vertex 0.000000e+00 1.275000e+00 -1.530808e-17
    endloop
  endfacet
  facet normal -1.000000e+00 0.000000e+00 0.000000e+00
    outer loop
      vertex 0.000000e+00 -1.275017e+00 0.000000e+00
      vertex 0.000000e+00 -1.275017e+00 2.164887e-01
      vertex 0.000000e+00 -1.275000e+00 1.530808e-17
    endloop
  endfacet
  facet normal -1.000000e+00 0.000000e+00 0.000000e+00
    outer loop
      vertex 0.000000e+00 -1.275017e+00 0.000000e+00
      vertex 0.000000e+00 -1.275017e+00 -2.164887e-01
      vertex 0.000000e+00 -1.366489e+00 -1.250169e-01
    endloop
  endfacet
  facet normal 1.000000e+00 0.000000e+00 0.000000e+00
    outer loop
      vertex 2.500000e-01 1.275017e+00 0.000000e+00
      vertex 2.500000e-01 1.275017e+00 -2.164887e-01
      vertex 2.500000e-01 1.366489e+00 -1.250169e-01
    endloop
  endfacet
  facet normal 1.000000e+00 0.000000e+00 0.000000e+00
    outer loop
      vertex 2.500000e-01 1.275017e+00 0.000000e+00
      vertex 2.500000e-01 1.275017e+00 2.164887e-01
      vertex 2.500000e-01 1.275000e+00 -1.530808e-17
    endloop
  endfacet
  facet normal 1.000000e+00 0.000000e+00 0.000000e+00
    outer loop
      vertex 2.500000e-01 -1.275017e+00 0.000000e+00
      vertex 2.500000e-01 -1.275017e+00 2.164887e-01
      vertex 2.500000e-01 -1.366489e+00 1.250169e-01
    endloop
  endfacet
  facet normal 1.000000e+00 0.000000e+00 0.000000e+00
    outer loop
      vertex 2.500000e-01 -1.275017e+00 0.000000e+00
      vertex 2.500000e-01 -1.275017e+00 -2.164887e-01
      vertex 2.500000e-01 -1.275000e+00 1.530808e-17
    endloop
  endfacet
endsolid 7
