solid 8
  facet normal -1.000000e+00 0.000000e+00 0.000000e+00
    outer loop
      vertex 0.000000e+00 2.022559e-01 -1.469403e-01
      vertex 0.000000e+00 -2.022559e-01 -1.469403e-01
      vertex 0.000000e+00 -2.500000e-01 3.061617e-17
    endloop
  endfacet
  facet normal -8.636292e-17 -9.510559e-01 -3.090190e-01
    outer loop
      vertex 5.000000e+00 -2.500000e-01 0.000000e+00
      vertex 0.000000e+00 -2.500000e-01 3.061617e-17
      vertex 0.000000e+00 -2.022559e-01 -1.469403e-01
    endloop
  endfacet
  facet normal -1.000000e+00 0.000000e+00 0.000000e+00
    outer loop
      vertex 0.000000e+00 2.500000e-01 -3.061617e-17
      vertex 0.000000e+00 2.022559e-01 -1.469403e-01
      vertex 0.000000e+00 -2.500000e-01 3.061617e-17
    endloop
  endfacet
  facet normal -1.000000e+00 0.000000e+00 0.000000e+00
    outer loop
      vertex 0.000000e+00 -2.022559e-01 1.469403e-01
      vertex 0.000000e+00 2.500000e-01 -3.061617e-17
      vertex 0.000000e+00 -2.500000e-01 3.061617e-17
    endloop
  endfacet
  facet normal -1.353778e-03 -9.510550e-01 3.090187e-01
    outer loop
      vertex 5.000000e+00 -2.165137e-01 1.249638e-01
      vertex 0.000000e+00 -2.022559e-01 1.469403e-01
      vertex 0.000000e+00 -2.500000e-01 3.061617e-17
    endloop
  endfacet
  facet normal -8.447501e-17 -9.659214e-01 2.588357e-01
    outer loop
      vertex 5.000000e+00 -2.165137e-01 1.249638e-01
      vertex 0.000000e+00 -2.500000e-01 3.061617e-17
      vertex 5.000000e+00 -2.500000e-01 0.000000e+00
    endloop
  endfacet
  facet normal -1.000000e+00 0.000000e+00 0.000000e+00
    outer loop
      vertex 0.000000e+00 7.724285e-02 -2.377668e-01
      vertex 0.000000e+00 -7.724285e-02 -2.377668e-01
      vertex 0.000000e+00 -2.022559e-01 -1.469403e-01
    endloop
  endfacet
  facet normal -2.171076e-03 -5.877806e-01 -8.090174e-01
    outer loop
      vertex 5.000000e+00 -1.249638e-01 -2.165137e-01
      vertex 0.000000e+00 -2.022559e-01 -1.469403e-01
      vertex 0.000000e+00 -7.724285e-02 -2.377668e-01
    endloop
  endfacet
  facet normal -1.000000e+00 0.000000e+00 0.000000e+00
    outer loop
      vertex 0.000000e+00 2.022559e-01 -1.469403e-01
      vertex 0.000000e+00 7.724285e-02 -2.377668e-01
      vertex 0.000000e+00 -2.022559e-01 -1.469403e-01
    endloop
  endfacet
  facet normal -1.616738e-03 -9.659201e-01 -2.588353e-01
    outer loop
      vertex 5.000000e+00 -2.165137e-01 -1.249638e-01
      vertex 5.000000e+00 -2.500000e-01 0.000000e+00
      vertex 0.000000e+00 -2.022559e-01 -1.469403e-01
    endloop
  endfacet
  facet normal 1.091570e-03 -7.071064e-01 -7.071064e-01
    outer loop
      vertex 5.000000e+00 -1.249638e-01 -2.165137e-01
      vertex 5.000000e+00 -2.165137e-01 -1.249638e-01
      vertex 0.000000e+00 -2.022559e-01 -1.469403e-01
    endloop
  endfacet
  facet normal -2.446636e-03 1.796638e-16 -9.999970e-01
    outer loop
      vertex 5.000000e+00 0.000000e+00 -2.500000e-01
      vertex 0.000000e+00 -7.724285e-02 -2.377668e-01
      vertex 0.000000e+00 7.724285e-02 -2.377668e-01
    endloop
  endfacet
  facet normal 1.635374e-03 -2.588353e-01 -9.659201e-01
    outer loop
      vertex 5.000000e+00 0.000000e+00 -2.500000e-01
      vertex 5.000000e+00 -1.249638e-01 -2.165137e-01
      vertex 0.000000e+00 -7.724285e-02 -2.377668e-01
    endloop
  endfacet
  facet normal -2.171076e-03 5.877806e-01 -8.090174e-01
    outer loop
      vertex 5.000000e+00 1.249638e-01 -2.165137e-01
      vertex 0.000000e+00 7.724285e-02 -2.377668e-01
      vertex 0.000000e+00 2.022559e-01 -1.469403e-01
    endloop
  endfacet
  facet normal 1.635374e-03 2.588353e-01 -9.659201e-01
    outer loop
      vertex 5.000000e+00 1.249638e-01 -2.165137e-01
      vertex 5.000000e+00 0.000000e+00 -2.500000e-01
      vertex 0.000000e+00 7.724285e-02 -2.377668e-01
    endloop
  endfacet
  facet normal -1.353778e-03 9.510550e-01 -3.090187e-01
    outer loop
      vertex 5.000000e+00 2.165137e-01 -1.249638e-01
      vertex 0.000000e+00 2.022559e-01 -1.469403e-01
      vertex 0.000000e+00 2.500000e-01 -3.061617e-17
    endloop
  endfacet
  facet normal 1.091570e-03 7.071064e-01 -7.071064e-01
    outer loop
      vertex 5.000000e+00 2.165137e-01 -1.249638e-01
      vertex 5.000000e+00 1.249638e-01 -2.165137e-01
      vertex 0.000000e+00 2.022559e-01 -1.469403e-01
    endloop
  endfacet
  facet normal -1.000000e+00 0.000000e+00 0.000000e+00
    outer loop
      vertex 0.000000e+00 -2.022559e-01 1.469403e-01
      vertex 0.000000e+00 2.022559e-01 1.469403e-01
      vertex 0.000000e+00 2.500000e-01 -3.061617e-17
    endloop
  endfacet
  facet normal -1.892196e-18 9.510559e-01 3.090190e-01
    outer loop
      vertex 5.000000e+00 2.500000e-01 0.000000e+00
      vertex 0.000000e+00 2.500000e-01 -3.061617e-17
      vertex 0.000000e+00 2.022559e-01 1.469403e-01
    endloop
  endfacet
  facet normal 1.584911e-18 9.659214e-01 -2.588357e-01
    outer loop
      vertex 5.000000e+00 2.500000e-01 0.000000e+00
      vertex 5.000000e+00 2.165137e-01 -1.249638e-01
      vertex 0.000000e+00 2.500000e-01 -3.061617e-17
    endloop
  endfacet
  facet normal -1.000000e+00 0.000000e+00 0.000000e+00
    outer loop
      vertex 0.000000e+00 -7.724285e-02 2.377668e-01
      vertex 0.000000e+00 7.724285e-02 2.377668e-01
      vertex 0.000000e+00 2.022559e-01 1.469403e-01
    endloop
  endfacet
  facet normal -2.171076e-03 5.877806e-01 8.090174e-01
    outer loop
      vertex 5.000000e+00 1.249638e-01 2.165137e-01
      vertex 0.000000e+00 2.022559e-01 1.469403e-01
      vertex 0.000000e+00 7.724285e-02 2.377668e-01
    endloop
  endfacet
  facet normal -1.000000e+00 0.000000e+00 0.000000e+00
    outer loop
      vertex 0.000000e+00 -2.022559e-01 1.469403e-01
      vertex 0.000000e+00 -7.724285e-02 2.377668e-01
      vertex 0.000000e+00 2.022559e-01 1.469403e-01
    endloop
  endfacet
  facet normal -1.616738e-03 9.659201e-01 2.588353e-01
    outer loop
      vertex 5.000000e+00 2.165137e-01 1.249638e-01
      vertex 5.000000e+00 2.500000e-01 0.000000e+00
      vertex 0.000000e+00 2.022559e-01 1.469403e-01
    endloop
  endfacet
  facet normal 1.091570e-03 7.071064e-01 7.071064e-01
    outer loop
      vertex 5.000000e+00 1.249638e-01 2.165137e-01
      vertex 5.000000e+00 2.165137e-01 1.249638e-01
      vertex 0.000000e+00 2.022559e-01 1.469403e-01
    endloop
  endfacet
  facet normal -2.446636e-03 1.796638e-16 9.999970e-01
    outer loop
      vertex 5.000000e+00 0.000000e+00 2.500000e-01
      vertex 0.000000e+00 7.724285e-02 2.377668e-01
      vertex 0.000000e+00 -7.724285e-02 2.377668e-01
    endloop
  endfacet
  facet normal 1.635374e-03 2.588353e-01 9.659201e-01
    outer loop
      vertex 5.000000e+00 0.000000e+00 2.500000e-01
      vertex 5.000000e+00 1.249638e-01 2.165137e-01
      vertex 0.000000e+00 7.724285e-02 2.377668e-01
    endloop
  endfacet
  facet normal -2.171076e-03 -5.877806e-01 8.090174e-01
    outer loop
      vertex 5.000000e+00 -1.249638e-01 2.165137e-01
      vertex 0.000000e+00 -7.724285e-02 2.377668e-01
      vertex 0.000000e+00 -2.022559e-01 1.469403e-01
    endloop
  endfacet
  facet normal 1.635374e-03 -2.588353e-01 9.659201e-01
    outer loop
      vertex 5.000000e+00 -1.249638e-01 2.165137e-01
      vertex 5.000000e+00 0.000000e+00 2.500000e-01
      vertex 0.000000e+00 -7.724285e-02 2.377668e-01
    endloop
  endfacet
  facet normal 1.091570e-03 -7.071064e-01 7.071064e-01
    outer loop
      vertex 5.000000e+00 -2.165137e-01 1.249638e-01
      vertex 5.000000e+00 -1.249638e-01 2.165137e-01
      vertex 0.000000e+00 -2.022559e-01 1.469403e-01
    endloop
  endfacet
  facet normal -1.000000e+00 0.000000e+00 0.000000e+00
    outer loop
      vertex 5.000000e+00 -2.500000e-01 -2.500000e-01
      vertex 5.000000e+00 -2.500000e-01 0.000000e+00
      vertex 5.000000e+00 -2.165137e-01 -1.249638e-01
    endloop
  endfacet
  facet normal -1.000000e+00 0.000000e+00 0.000000e+00
    outer loop
      vertex 5.000000e+00 -2.500000e-01 2.500000e-01
      vertex 5.000000e+00 -2.165137e-01 1.249638e-01
      vertex 5.000000e+00 -2.500000e-01 0.000000e+00
    endloop
  endfacet
  facet normal 0.000000e+00 -1.000000e+00 -1.776357e-15
    outer loop
      vertex 7.500000e+00 -2.500000e-01 -2.500000e-01
      vertex 5.000000e+00 -2.500000e-01 0.000000e+00
      vertex 5.000000e+00 -2.500000e-01 -2.500000e-01
    endloop
  endfacet
  facet normal 3.552714e-16 -1.000000e+00 1.776357e-15
    outer loop
      vertex 7.500000e+00 -2.500000e-01 -2.500000e-01
      vertex 5.000000e+00 -2.500000e-01 2.500000e-01
      vertex 5.000000e+00 -2.500000e-01 0.000000e+00
    endloop
  endfacet
  facet normal -1.000000e+00 0.000000e+00 0.000000e+00
    outer loop
      vertex 5.000000e+00 -2.500000e-01 -2.500000e-01
      vertex 5.000000e+00 -2.165137e-01 -1.249638e-01
      vertex 5.000000e+00 -1.249638e-01 -2.165137e-01
    endloop
  endfacet
  facet normal -1.000000e+00 0.000000e+00 0.000000e+00
    outer loop
      vertex 5.000000e+00 -2.500000e-01 -2.500000e-01
      vertex 5.000000e+00 -1.249638e-01 -2.165137e-01
      vertex 5.000000e+00 0.000000e+00 -2.500000e-01
    endloop
  endfacet
  facet normal -1.000000e+00 0.000000e+00 0.000000e+00
    outer loop
      vertex 5.000000e+00 2.500000e-01 -2.500000e-01
      vertex 5.000000e+00 0.000000e+00 -2.500000e-01
      vertex 5.000000e+00 1.249638e-01 -2.165137e-01
    endloop
  endfacet
  facet normal 0.000000e+00 0.000000e+00 -1.000000e+00
    outer loop
      vertex 5.411652e+00 8.841299e-02 -2.500000e-01
      vertex 5.000000e+00 -2.500000e-01 -2.500000e-01
      vertex 5.000000e+00 0.000000e+00 -2.500000e-01
    endloop
  endfacet
  facet normal 0.000000e+00 0.000000e+00 -1.000000e+00
    outer loop
      vertex 5.500000e+00 1.249806e-01 -2.500000e-01
      vertex 5.000000e+00 0.000000e+00 -2.500000e-01
      vertex 5.000000e+00 2.500000e-01 -2.500000e-01
    endloop
  endfacet
  facet normal 0.000000e+00 0.000000e+00 -1.000000e+00
    outer loop
      vertex 5.500000e+00 1.249806e-01 -2.500000e-01
      vertex 5.411652e+00 8.841299e-02 -2.500000e-01
      vertex 5.000000e+00 0.000000e+00 -2.500000e-01
    endloop
  endfacet
  facet normal -1.000000e+00 0.000000e+00 0.000000e+00
    outer loop
      vertex 5.000000e+00 2.500000e-01 -2.500000e-01
      vertex 5.000000e+00 1.249638e-01 -2.165137e-01
      vertex 5.000000e+00 2.165137e-01 -1.249638e-01
    endloop
  endfacet
  facet normal -1.000000e+00 0.000000e+00 0.000000e+00
    outer loop
      vertex 5.000000e+00 2.500000e-01 -2.500000e-01
      vertex 5.000000e+00 2.165137e-01 -1.249638e-01
      vertex 5.000000e+00 2.500000e-01 0.000000e+00
    endloop
  endfacet
  facet normal -1.000000e+00 0.000000e+00 0.000000e+00
    outer loop
      vertex 5.000000e+00 2.500000e-01 2.500000e-01
      vertex 5.000000e+00 2.500000e-01 0.000000e+00
      vertex 5.000000e+00 2.165137e-01 1.249638e-01
    endloop
  endfacet
  facet normal 0.000000e+00 1.000000e+00 0.000000e+00
    outer loop
      vertex 7.500000e+00 2.500000e-01 2.500000e-01
      vertex 5.000000e+00 2.500000e-01 -2.500000e-01
      vertex 5.000000e+00 2.500000e-01 0.000000e+00
    endloop
  endfacet
  facet normal 0.000000e+00 1.000000e+00 0.000000e+00
    outer loop
      vertex 7.500000e+00 2.500000e-01 2.500000e-01
      vertex 5.000000e+00 2.500000e-01 0.000000e+00
      vertex 5.000000e+00 2.500000e-01 2.500000e-01
    endloop
  endfacet
  facet normal -1.000000e+00 0.000000e+00 0.000000e+00
    outer loop
      vertex 5.000000e+00 2.500000e-01 2.500000e-01
      vertex 5.000000e+00 2.165137e-01 1.249638e-01
      vertex 5.000000e+00 1.249638e-01 2.165137e-01
    endloop
  endfacet
  facet normal -1.000000e+00 0.000000e+00 0.000000e+00
    outer loop
      vertex 5.000000e+00 2.500000e-01 2.500000e-01
      vertex 5.000000e+00 1.249638e-01 2.165137e-01
      vertex 5.000000e+00 0.000000e+00 2.500000e-01
    endloop
  endfacet
  facet normal -1.000000e+00 0.000000e+00 0.000000e+00
    outer loop
      vertex 5.000000e+00 -2.500000e-01 2.500000e-01
      vertex 5.000000e+00 0.000000e+00 2.500000e-01
      vertex 5.000000e+00 -1.249638e-01 2.165137e-01
    endloop
  endfacet
  facet normal 0.000000e+00 0.000000e+00 1.000000e+00
    outer loop
      vertex 5.411652e+00 -8.841299e-02 2.500000e-01
      vertex 5.000000e+00 2.500000e-01 2.500000e-01
      vertex 5.000000e+00 0.000000e+00 2.500000e-01
    endloop
  endfacet
  facet normal 0.000000e+00 0.000000e+00 1.000000e+00
    outer loop
      vertex 5.500000e+00 -1.249806e-01 2.500000e-01
      vertex 5.000000e+00 0.000000e+00 2.500000e-01
      vertex 5.000000e+00 -2.500000e-01 2.500000e-01
    endloop
  endfacet
  facet normal 0.000000e+00 0.000000e+00 1.000000e+00
    outer loop
      vertex 5.500000e+00 -1.249806e-01 2.500000e-01
      vertex 5.411652e+00 -8.841299e-02 2.500000e-01
      vertex 5.000000e+00 0.000000e+00 2.500000e-01
    endloop
  endfacet
  facet normal -1.000000e+00 0.000000e+00 0.000000e+00
    outer loop
      vertex 5.000000e+00 -2.500000e-01 2.500000e-01
      vertex 5.000000e+00 -1.249638e-01 2.165137e-01
      vertex 5.000000e+00 -2.165137e-01 1.249638e-01
    endloop
  endfacet
  facet normal 0.000000e+00 0.000000e+00 -1.000000e+00
    outer loop
      vertex 7.000000e+00 -1.249806e-01 -2.500000e-01
      vertex 7.500000e+00 -2.500000e-01 -2.500000e-01
      vertex 5.000000e+00 -2.500000e-01 -2.500000e-01
    endloop
  endfacet
  facet normal 0.000000e+00 0.000000e+00 -1.000000e+00
    outer loop
      vertex 6.911652e+00 -8.841299e-02 -2.500000e-01
      vertex 5.000000e+00 -2.500000e-01 -2.500000e-01
      vertex 6.875000e+00 -2.775558e-17 -2.500000e-01
    endloop
  endfacet
  facet normal 0.000000e+00 0.000000e+00 -1.000000e+00
    outer loop
      vertex 5.500000e+00 -1.249806e-01 -2.500000e-01
      vertex 6.875000e+00 -2.775558e-17 -2.500000e-01
      vertex 5.000000e+00 -2.500000e-01 -2.500000e-01
    endloop
  endfacet
  facet normal 0.000000e+00 0.000000e+00 -1.000000e+00
    outer loop
      vertex 6.911652e+00 -8.841299e-02 -2.500000e-01
      vertex 7.000000e+00 -1.249806e-01 -2.500000e-01
      vertex 5.000000e+00 -2.500000e-01 -2.500000e-01
    endloop
  endfacet
  facet normal 0.000000e+00 0.000000e+00 -1.000000e+00
    outer loop
      vertex 5.411652e+00 8.841299e-02 -2.500000e-01
      vertex 5.375000e+00 -2.775558e-17 -2.500000e-01
      vertex 5.000000e+00 -2.500000e-01 -2.500000e-01
    endloop
  endfacet
  facet normal 0.000000e+00 0.000000e+00 -1.000000e+00
    outer loop
      vertex 5.411652e+00 -8.841299e-02 -2.500000e-01
      vertex 5.000000e+00 -2.500000e-01 -2.500000e-01
      vertex 5.375000e+00 -2.775558e-17 -2.500000e-01
    endloop
  endfacet
  facet normal 0.000000e+00 0.000000e+00 -1.000000e+00
    outer loop
      vertex 5.411652e+00 -8.841299e-02 -2.500000e-01
      vertex 5.500000e+00 -1.249806e-01 -2.500000e-01
      vertex 5.000000e+00 -2.500000e-01 -2.500000e-01
    endloop
  endfacet
  facet normal 0.000000e+00 1.000000e+00 0.000000e+00
    outer loop
      vertex 7.500000e+00 2.500000e-01 2.500000e-01
      vertex 7.500000e+00 2.500000e-01 -2.500000e-01
      vertex 5.000000e+00 2.500000e-01 -2.500000e-01
    endloop
  endfacet
  facet normal 0.000000e+00 0.000000e+00 -1.000000e+00
    outer loop
      vertex 5.500000e+00 1.249806e-01 -2.500000e-01
      vertex 5.000000e+00 2.500000e-01 -2.500000e-01
      vertex 7.500000e+00 2.500000e-01 -2.500000e-01
    endloop
  endfacet
  facet normal 0.000000e+00 0.000000e+00 1.000000e+00
    outer loop
      vertex 7.000000e+00 1.249806e-01 2.500000e-01
      vertex 7.500000e+00 2.500000e-01 2.500000e-01
      vertex 5.000000e+00 2.500000e-01 2.500000e-01
    endloop
  endfacet
  facet normal 0.000000e+00 0.000000e+00 1.000000e+00
    outer loop
      vertex 6.911652e+00 8.841299e-02 2.500000e-01
      vertex 5.000000e+00 2.500000e-01 2.500000e-01
      vertex 6.875000e+00 -5.551115e-17 2.500000e-01
    endloop
  endfacet
  facet normal 0.000000e+00 0.000000e+00 1.000000e+00
    outer loop
      vertex 5.500000e+00 1.249806e-01 2.500000e-01
      vertex 6.875000e+00 -5.551115e-17 2.500000e-01
      vertex 5.000000e+00 2.500000e-01 2.500000e-01
    endloop
  endfacet
  facet normal 0.000000e+00 0.000000e+00 1.000000e+00
    outer loop
      vertex 6.911652e+00 8.841299e-02 2.500000e-01
      vertex 7.000000e+00 1.249806e-01 2.500000e-01
      vertex 5.000000e+00 2.500000e-01 2.500000e-01
    endloop
  endfacet
  facet normal 0.000000e+00 0.000000e+00 1.000000e+00
    outer loop
      vertex 5.411652e+00 -8.841299e-02 2.500000e-01
      vertex 5.375000e+00 -5.551115e-17 2.500000e-01
      vertex 5.000000e+00 2.500000e-01 2.500000e-01
    endloop
  endfacet
  facet normal 0.000000e+00 0.000000e+00 1.000000e+00
    outer loop
      vertex 5.411652e+00 8.841299e-02 2.500000e-01
      vertex 5.000000e+00 2.500000e-01 2.500000e-01
      vertex 5.375000e+00 -5.551115e-17 2.500000e-01
    endloop
  endfacet
  facet normal 0.000000e+00 0.000000e+00 1.000000e+00
    outer loop
      vertex 5.411652e+00 8.841299e-02 2.500000e-01
      vertex 5.500000e+00 1.249806e-01 2.500000e-01
      vertex 5.000000e+00 2.500000e-01 2.500000e-01
    endloop
  endfacet
  facet normal 0.000000e+00 -1.000000e+00 0.000000e+00
    outer loop
      vertex 7.500000e+00 -2.500000e-01 2.500000e-01
      vertex 5.000000e+00 -2.500000e-01 2.500000e-01
      vertex 7.500000e+00 -2.500000e-01 -2.500000e-01
    endloop
  endfacet
  facet normal 0.000000e+00 0.000000e+00 1.000000e+00
    outer loop
      vertex 5.500000e+00 -1.249806e-01 2.500000e-01
      vertex 5.000000e+00 -2.500000e-01 2.500000e-01
      vertex 7.500000e+00 -2.500000e-01 2.500000e-01
    endloop
  endfacet
  facet normal 1.000000e+00 0.000000e+00 0.000000e+00
    outer loop
      vertex 7.500000e+00 2.500000e-01 2.500000e-01
      vertex 7.500000e+00 -2.500000e-01 -2.500000e-01
      vertex 7.500000e+00 2.500000e-01 -2.500000e-01
    endloop
  endfacet
  facet normal 0.000000e+00 0.000000e+00 -1.000000e+00
    outer loop
      vertex 7.088348e+00 -8.841299e-02 -2.500000e-01
      vertex 7.500000e+00 2.500000e-01 -2.500000e-01
      vertex 7.500000e+00 -2.500000e-01 -2.500000e-01
    endloop
  endfacet
  facet normal 0.000000e+00 0.000000e+00 -1.000000e+00
    outer loop
      vertex 7.088348e+00 8.841299e-02 -2.500000e-01
      vertex 7.000000e+00 1.249806e-01 -2.500000e-01
      vertex 7.500000e+00 2.500000e-01 -2.500000e-01
    endloop
  endfacet
  facet normal 0.000000e+00 0.000000e+00 -1.000000e+00
    outer loop
      vertex 5.625000e+00 0.000000e+00 -2.500000e-01
      vertex 7.500000e+00 2.500000e-01 -2.500000e-01
      vertex 7.000000e+00 1.249806e-01 -2.500000e-01
    endloop
  endfacet
  facet normal 0.000000e+00 0.000000e+00 -1.000000e+00
    outer loop
      vertex 7.125000e+00 0.000000e+00 -2.500000e-01
      vertex 7.088348e+00 8.841299e-02 -2.500000e-01
      vertex 7.500000e+00 2.500000e-01 -2.500000e-01
    endloop
  endfacet
  facet normal 0.000000e+00 0.000000e+00 -1.000000e+00
    outer loop
      vertex 7.088348e+00 -8.841299e-02 -2.500000e-01
      vertex 7.125000e+00 0.000000e+00 -2.500000e-01
      vertex 7.500000e+00 2.500000e-01 -2.500000e-01
    endloop
  endfacet
  facet normal 0.000000e+00 0.000000e+00 -1.000000e+00
    outer loop
      vertex 5.588348e+00 8.841299e-02 -2.500000e-01
      vertex 5.500000e+00 1.249806e-01 -2.500000e-01
      vertex 7.500000e+00 2.500000e-01 -2.500000e-01
    endloop
  endfacet
  facet normal 0.000000e+00 0.000000e+00 -1.000000e+00
    outer loop
      vertex 5.625000e+00 0.000000e+00 -2.500000e-01
      vertex 5.588348e+00 8.841299e-02 -2.500000e-01
      vertex 7.500000e+00 2.500000e-01 -2.500000e-01
    endloop
  endfacet
  facet normal 1.000000e+00 0.000000e+00 0.000000e+00
    outer loop
      vertex 7.500000e+00 2.500000e-01 2.500000e-01
      vertex 7.500000e+00 -2.500000e-01 2.500000e-01
      vertex 7.500000e+00 -2.500000e-01 -2.500000e-01
    endloop
  endfacet
  facet normal 0.000000e+00 0.000000e+00 -1.000000e+00
    outer loop
      vertex 7.000000e+00 -1.249806e-01 -2.500000e-01
      vertex 7.088348e+00 -8.841299e-02 -2.500000e-01
      vertex 7.500000e+00 -2.500000e-01 -2.500000e-01
    endloop
  endfacet
  facet normal 0.000000e+00 0.000000e+00 1.000000e+00
    outer loop
      vertex 7.088348e+00 8.841299e-02 2.500000e-01
      vertex 7.500000e+00 -2.500000e-01 2.500000e-01
      vertex 7.500000e+00 2.500000e-01 2.500000e-01
    endloop
  endfacet
  facet normal 0.000000e+00 0.000000e+00 1.000000e+00
    outer loop
      vertex 7.088348e+00 -8.841299e-02 2.500000e-01
      vertex 7.000000e+00 -1.249806e-01 2.500000e-01
      vertex 7.500000e+00 -2.500000e-01 2.500000e-01
    endloop
  endfacet
  facet normal 0.000000e+00 0.000000e+00 1.000000e+00
    outer loop
      vertex 5.625000e+00 2.775558e-17 2.500000e-01
      vertex 7.500000e+00 -2.500000e-01 2.500000e-01
      vertex 7.000000e+00 -1.249806e-01 2.500000e-01
    endloop
  endfacet
  facet normal 0.000000e+00 0.000000e+00 1.000000e+00
    outer loop
      vertex 7.125000e+00 2.775558e-17 2.500000e-01
      vertex 7.088348e+00 -8.841299e-02 2.500000e-01
      vertex 7.500000e+00 -2.500000e-01 2.500000e-01
    endloop
  endfacet
  facet normal 0.000000e+00 0.000000e+00 1.000000e+00
    outer loop
      vertex 7.088348e+00 8.841299e-02 2.500000e-01
      vertex 7.125000e+00 2.775558e-17 2.500000e-01
      vertex 7.500000e+00 -2.500000e-01 2.500000e-01
    endloop
  endfacet
  facet normal 0.000000e+00 0.000000e+00 1.000000e+00
    outer loop
      vertex 5.588348e+00 -8.841299e-02 2.500000e-01
      vertex 5.500000e+00 -1.249806e-01 2.500000e-01
      vertex 7.500000e+00 -2.500000e-01 2.500000e-01
    endloop
  endfacet
  facet normal 0.000000e+00 0.000000e+00 1.000000e+00
    outer loop
      vertex 5.625000e+00 2.775558e-17 2.500000e-01
      vertex 5.588348e+00 -8.841299e-02 2.500000e-01
      vertex 7.500000e+00 -2.500000e-01 2.500000e-01
    endloop
  endfacet
  facet normal 0.000000e+00 0.000000e+00 1.000000e+00
    outer loop
      vertex 7.000000e+00 1.249806e-01 2.500000e-01
      vertex 7.088348e+00 8.841299e-02 2.500000e-01
      vertex 7.500000e+00 2.500000e-01 2.500000e-01
    endloop
  endfacet
  facet normal 0.000000e+00 0.000000e+00 1.000000e+00
    outer loop
      vertex 5.625000e+00 2.775558e-17 2.500000e-01
      vertex 6.911652e+00 -8.841299e-02 2.500000e-01
      vertex 6.875000e+00 -5.551115e-17 2.500000e-01
    endloop
  endfacet
  facet normal 9.237693e-01 3.829494e-01 2.125796e-17
    outer loop
      vertex 6.875000e+00 -2.775558e-17 -2.500000e-01
      vertex 6.875000e+00 -5.551115e-17 2.500000e-01
      vertex 6.911652e+00 -8.841299e-02 2.500000e-01
    endloop
  endfacet
  facet normal 9.237693e-01 -3.829494e-01 -2.125796e-17
    outer loop
      vertex 6.911652e+00 8.841299e-02 -2.500000e-01
      vertex 6.911652e+00 8.841299e-02 2.500000e-01
      vertex 6.875000e+00 -5.551115e-17 2.500000e-01
    endloop
  endfacet
  facet normal 0.000000e+00 0.000000e+00 1.000000e+00
    outer loop
      vertex 5.588348e+00 8.841299e-02 2.500000e-01
      vertex 5.625000e+00 2.775558e-17 2.500000e-01
      vertex 6.875000e+00 -5.551115e-17 2.500000e-01
    endloop
  endfacet
  facet normal 0.000000e+00 0.000000e+00 1.000000e+00
    outer loop
      vertex 5.500000e+00 1.249806e-01 2.500000e-01
      vertex 5.588348e+00 8.841299e-02 2.500000e-01
      vertex 6.875000e+00 -5.551115e-17 2.500000e-01
    endloop
  endfacet
  facet normal 9.237693e-01 -3.829494e-01 -1.812499e-17
    outer loop
      vertex 6.911652e+00 8.841299e-02 -2.500000e-01
      vertex 6.875000e+00 -5.551115e-17 2.500000e-01
      vertex 6.875000e+00 -2.775558e-17 -2.500000e-01
    endloop
  endfacet
  facet normal 0.000000e+00 0.000000e+00 1.000000e+00
    outer loop
      vertex 5.625000e+00 2.775558e-17 2.500000e-01
      vertex 7.000000e+00 -1.249806e-01 2.500000e-01
      vertex 6.911652e+00 -8.841299e-02 2.500000e-01
    endloop
  endfacet
  facet normal 3.824386e-01 9.239809e-01 -5.129124e-17
    outer loop
      vertex 6.911652e+00 -8.841299e-02 -2.500000e-01
      vertex 6.911652e+00 -8.841299e-02 2.500000e-01
      vertex 7.000000e+00 -1.249806e-01 2.500000e-01
    endloop
  endfacet
  facet normal 9.237693e-01 3.829494e-01 -2.125796e-17
    outer loop
      vertex 6.911652e+00 -8.841299e-02 -2.500000e-01
      vertex 6.875000e+00 -2.775558e-17 -2.500000e-01
      vertex 6.911652e+00 -8.841299e-02 2.500000e-01
    endloop
  endfacet
  facet normal -3.824386e-01 9.239809e-01 -1.025825e-16
    outer loop
      vertex 7.000000e+00 -1.249806e-01 -2.500000e-01
      vertex 7.000000e+00 -1.249806e-01 2.500000e-01
      vertex 7.088348e+00 -8.841299e-02 2.500000e-01
    endloop
  endfacet
  facet normal 3.824386e-01 9.239809e-01 -9.978325e-17
    outer loop
      vertex 6.911652e+00 -8.841299e-02 -2.500000e-01
      vertex 7.000000e+00 -1.249806e-01 2.500000e-01
      vertex 7.000000e+00 -1.249806e-01 -2.500000e-01
    endloop
  endfacet
  facet normal -9.237693e-01 3.829494e-01 4.251592e-17
    outer loop
      vertex 7.088348e+00 -8.841299e-02 -2.500000e-01
      vertex 7.088348e+00 -8.841299e-02 2.500000e-01
      vertex 7.125000e+00 2.775558e-17 2.500000e-01
    endloop
  endfacet
  facet normal -3.824386e-01 9.239809e-01 9.978325e-17
    outer loop
      vertex 7.000000e+00 -1.249806e-01 -2.500000e-01
      vertex 7.088348e+00 -8.841299e-02 2.500000e-01
      vertex 7.088348e+00 -8.841299e-02 -2.500000e-01
    endloop
  endfacet
  facet normal -9.237693e-01 -3.829494e-01 2.125796e-17
    outer loop
      vertex 7.125000e+00 0.000000e+00 -2.500000e-01
      vertex 7.125000e+00 2.775558e-17 2.500000e-01
      vertex 7.088348e+00 8.841299e-02 2.500000e-01
    endloop
  endfacet
  facet normal -9.237693e-01 3.829494e-01 -1.812499e-17
    outer loop
      vertex 7.088348e+00 -8.841299e-02 -2.500000e-01
      vertex 7.125000e+00 2.775558e-17 2.500000e-01
      vertex 7.125000e+00 0.000000e+00 -2.500000e-01
    endloop
  endfacet
  facet normal -3.824386e-01 -9.239809e-01 0.000000e+00
    outer loop
      vertex 7.088348e+00 8.841299e-02 -2.500000e-01
      vertex 7.088348e+00 8.841299e-02 2.500000e-01
      vertex 7.000000e+00 1.249806e-01 2.500000e-01
    endloop
  endfacet
  facet normal -9.237693e-01 -3.829494e-01 0.000000e+00
    outer loop
      vertex 7.125000e+00 0.000000e+00 -2.500000e-01
      vertex 7.088348e+00 8.841299e-02 2.500000e-01
      vertex 7.088348e+00 8.841299e-02 -2.500000e-01
    endloop
  endfacet
  facet normal 3.824386e-01 -9.239809e-01 -5.129124e-17
    outer loop
      vertex 7.000000e+00 1.249806e-01 -2.500000e-01
      vertex 7.000000e+00 1.249806e-01 2.500000e-01
      vertex 6.911652e+00 8.841299e-02 2.500000e-01
    endloop
  endfacet
  facet normal -3.824386e-01 -9.239809e-01 -5.442723e-17
    outer loop
      vertex 7.088348e+00 8.841299e-02 -2.500000e-01
      vertex 7.000000e+00 1.249806e-01 2.500000e-01
      vertex 7.000000e+00 1.249806e-01 -2.500000e-01
    endloop
  endfacet
  facet normal 3.824386e-01 -9.239809e-01 -5.442723e-17
    outer loop
      vertex 7.000000e+00 1.249806e-01 -2.500000e-01
      vertex 6.911652e+00 8.841299e-02 2.500000e-01
      vertex 6.911652e+00 8.841299e-02 -2.500000e-01
    endloop
  endfacet
  facet normal 9.237693e-01 3.829494e-01 2.125796e-17
    outer loop
      vertex 5.375000e+00 -2.775558e-17 -2.500000e-01
      vertex 5.375000e+00 -5.551115e-17 2.500000e-01
      vertex 5.411652e+00 -8.841299e-02 2.500000e-01
    endloop
  endfacet
  facet normal 9.237693e-01 -3.829494e-01 -2.125796e-17
    outer loop
      vertex 5.411652e+00 8.841299e-02 -2.500000e-01
      vertex 5.411652e+00 8.841299e-02 2.500000e-01
      vertex 5.375000e+00 -5.551115e-17 2.500000e-01
    endloop
  endfacet
  facet normal 9.237693e-01 -3.829494e-01 -1.812499e-17
    outer loop
      vertex 5.411652e+00 8.841299e-02 -2.500000e-01
      vertex 5.375000e+00 -5.551115e-17 2.500000e-01
      vertex 5.375000e+00 -2.775558e-17 -2.500000e-01
    endloop
  endfacet
  facet normal 3.824386e-01 9.239809e-01 -5.129124e-17
    outer loop
      vertex 5.411652e+00 -8.841299e-02 -2.500000e-01
      vertex 5.411652e+00 -8.841299e-02 2.500000e-01
      vertex 5.500000e+00 -1.249806e-01 2.500000e-01
    endloop
  endfacet
  facet normal 9.237693e-01 3.829494e-01 -2.125796e-17
    outer loop
      vertex 5.411652e+00 -8.841299e-02 -2.500000e-01
      vertex 5.375000e+00 -2.775558e-17 -2.500000e-01
      vertex 5.411652e+00 -8.841299e-02 2.500000e-01
    endloop
  endfacet
  facet normal -3.824386e-01 9.239809e-01 -1.025825e-16
    outer loop
      vertex 5.500000e+00 -1.249806e-01 -2.500000e-01
      vertex 5.500000e+00 -1.249806e-01 2.500000e-01
      vertex 5.588348e+00 -8.841299e-02 2.500000e-01
    endloop
  endfacet
  facet normal 3.824386e-01 9.239809e-01 -9.978325e-17
    outer loop
      vertex 5.411652e+00 -8.841299e-02 -2.500000e-01
      vertex 5.500000e+00 -1.249806e-01 2.500000e-01
      vertex 5.500000e+00 -1.249806e-01 -2.500000e-01
    endloop
  endfacet
  facet normal -9.237693e-01 3.829494e-01 4.251592e-17
    outer loop
      vertex 5.588348e+00 -8.841299e-02 -2.500000e-01
      vertex 5.588348e+00 -8.841299e-02 2.500000e-01
      vertex 5.625000e+00 2.775558e-17 2.500000e-01
    endloop
  endfacet
  facet normal -3.824386e-01 9.239809e-01 9.978325e-17
    outer loop
      vertex 5.500000e+00 -1.249806e-01 -2.500000e-01
      vertex 5.588348e+00 -8.841299e-02 2.500000e-01
      vertex 5.588348e+00 -8.841299e-02 -2.500000e-01
    endloop
  endfacet
  facet normal -9.237693e-01 -3.829494e-01 2.125796e-17
    outer loop
      vertex 5.625000e+00 0.000000e+00 -2.500000e-01
      vertex 5.625000e+00 2.775558e-17 2.500000e-01
      vertex 5.588348e+00 8.841299e-02 2.500000e-01
    endloop
  endfacet
  facet normal -9.237693e-01 3.829494e-01 -1.812499e-17
    outer loop
      vertex 5.588348e+00 -8.841299e-02 -2.500000e-01
      vertex 5.625000e+00 2.775558e-17 2.500000e-01
      vertex 5.625000e+00 0.000000e+00 -2.500000e-01
    endloop
  endfacet
  facet normal -3.824386e-01 -9.239809e-01 0.000000e+00
    outer loop
      vertex 5.588348e+00 8.841299e-02 -2.500000e-01
      vertex 5.588348e+00 8.841299e-02 2.500000e-01
      vertex 5.500000e+00 1.249806e-01 2.500000e-01
    endloop
  endfacet
  facet normal -9.237693e-01 -3.829494e-01 0.000000e+00
    outer loop
      vertex 5.625000e+00 0.000000e+00 -2.500000e-01
      vertex 5.588348e+00 8.841299e-02 2.500000e-01
      vertex 5.588348e+00 8.841299e-02 -2.500000e-01
    endloop
  endfacet
  facet normal 3.824386e-01 -9.239809e-01 -5.129124e-17
    outer loop
      vertex 5.500000e+00 1.249806e-01 -2.500000e-01
      vertex 5.500000e+00 1.249806e-01 2.500000e-01
      vertex 5.411652e+00 8.841299e-02 2.500000e-01
    endloop
  endfacet
  facet normal -3.824386e-01 -9.239809e-01 -5.442723e-17
    outer loop
      vertex 5.588348e+00 8.841299e-02 -2.500000e-01
      vertex 5.500000e+00 1.249806e-01 2.500000e-01
      vertex 5.500000e+00 1.249806e-01 -2.500000e-01
    endloop
  endfacet
  facet normal 3.824386e-01 -9.239809e-01 -5.442723e-17
    outer loop
      vertex 5.500000e+00 1.249806e-01 -2.500000e-01
      vertex 5.411652e+00 8.841299e-02 2.500000e-01
      vertex 5.411652e+00 8.841299e-02 -2.500000e-01
    endloop
  endfacet
  facet normal 0.000000e+00 0.000000e+00 -1.000000e+00
    outer loop
      vertex 5.625000e+00 0.000000e+00 -2.500000e-01
      vertex 6.911652e+00 8.841299e-02 -2.500000e-01
      vertex 6.875000e+00 -2.775558e-17 -2.500000e-01
    endloop
  endfacet
  facet normal 0.000000e+00 0.000000e+00 -1.000000e+00
    outer loop
      vertex 5.588348e+00 -8.841299e-02 -2.500000e-01
      vertex 5.625000e+00 0.000000e+00 -2.500000e-01
      vertex 6.875000e+00 -2.775558e-17 -2.500000e-01
    endloop
  endfacet
  facet normal 0.000000e+00 0.000000e+00 -1.000000e+00
    outer loop
      vertex 5.500000e+00 -1.249806e-01 -2.500000e-01
      vertex 5.588348e+00 -8.841299e-02 -2.500000e-01
      vertex 6.875000e+00 -2.775558e-17 -2.500000e-01
    endloop
  endfacet
  facet normal 0.000000e+00 0.000000e+00 -1.000000e+00
    outer loop
      vertex 5.625000e+00 0.000000e+00 -2.500000e-01
      vertex 7.000000e+00 1.249806e-01 -2.500000e-01
      vertex 6.911652e+00 8.841299e-02 -2.500000e-01
    endloop
  endfacet
endsolid 8
